<svg width="236" height="236" viewBox="0 0 236 236" fill="none" xmlns="http://www.w3.org/2000/svg">
<rect x="4" width="228" height="228" rx="114" fill="white"/>
<g filter="url(#filter0_d_5001_237)">
<path d="M229.697 114C229.697 175.688 179.689 225.697 118 225.697C56.3117 225.697 6.30322 175.688 6.30322 114C6.30322 52.3114 56.3117 2.30298 118 2.30298C179.689 2.30298 229.697 52.3114 229.697 114ZM34.1176 114C34.1176 160.327 71.6731 197.883 118 197.883C164.327 197.883 201.883 160.327 201.883 114C201.883 67.6729 164.327 30.1174 118 30.1174C71.6731 30.1174 34.1176 67.6729 34.1176 114Z" fill="#002C53"/>
<path d="M232 114C232 176.96 180.96 228 118 228C55.0395 228 4 176.96 4 114C4 51.0395 55.0395 0 118 0C180.96 0 232 51.0395 232 114ZM7.42 114C7.42 175.072 56.9284 224.58 118 224.58C179.072 224.58 228.58 175.072 228.58 114C228.58 52.9284 179.072 3.42 118 3.42C56.9284 3.42 7.42 52.9284 7.42 114Z" fill="#FFA155"/>
<path d="M202.493 113.64C202.493 160.503 164.503 198.492 117.64 198.492C70.7777 198.492 32.7881 160.503 32.7881 113.64C32.7881 66.7775 70.7777 28.7878 117.64 28.7878C164.503 28.7878 202.493 66.7775 202.493 113.64ZM37.0307 113.64C37.0307 158.16 73.1209 194.25 117.64 194.25C162.16 194.25 198.25 158.16 198.25 113.64C198.25 69.1206 162.16 33.0305 117.64 33.0305C73.1209 33.0305 37.0307 69.1206 37.0307 113.64Z" fill="#FFA155"/>
<path d="M156.552 93.0446H78.9112C78.2596 93.0446 77.7476 92.5326 77.7476 91.881C77.7476 91.2293 78.2596 90.7173 78.9112 90.7173H156.552C157.203 90.7173 157.715 91.2293 157.715 91.881C157.715 92.5326 157.203 93.0446 156.552 93.0446Z" fill="#CE8522"/>
<path d="M117.731 93.0447C117.079 93.0447 116.567 92.5327 116.567 91.881V58.7395C116.567 58.0878 117.079 57.5758 117.731 57.5758C118.383 57.5758 118.895 58.0878 118.895 58.7395V91.8345C118.895 92.5327 118.383 93.0447 117.731 93.0447Z" fill="#CE8522"/>
<path d="M63.7361 80.8495C61.9673 81.9201 60.6174 84.0147 60.3847 86.5282C60.1054 89.0418 60.9898 91.3226 62.5259 92.719C64.1085 91.4157 65.2256 89.4142 65.4583 87.0403C65.6911 84.7129 65.0394 82.4786 63.7361 80.8495ZM61.0829 89.1814C60.664 86.5748 61.5018 83.6423 63.2241 81.827C62.8517 84.3871 62.1069 86.8075 61.0829 89.1814Z" fill="url(#paint0_linear_5001_237)"/>
<path d="M70.4399 89.2912C68.5315 88.8723 66.4834 89.3377 64.9008 90.9669C63.3648 92.5495 62.7131 94.9234 63.0389 97.1111C64.9939 97.3438 66.9489 96.5991 68.4384 95.0165C69.8814 93.4339 70.5796 91.3393 70.4399 89.2912ZM63.9699 93.4339C65.087 91.1996 67.2747 89.7567 69.509 89.6636C67.9264 91.2462 66.0645 92.5029 63.9699 93.4339Z" fill="url(#paint1_linear_5001_237)"/>
<path d="M56.8049 95.8841C58.2944 97.6995 60.3425 98.3511 62.2509 97.9788C62.4371 95.7445 61.8785 93.4171 60.4821 91.6018C59.0857 89.7865 57.1307 88.8555 55.2223 89.0417C54.7568 91.4622 55.3154 94.0688 56.8049 95.8841ZM56.0601 89.5537C58.2944 90.0658 60.2028 91.8811 61.2734 94.2084C59.2253 93.1844 57.41 91.6484 56.0601 89.5537Z" fill="url(#paint2_linear_5001_237)"/>
<path d="M70.2998 97.8392C68.3913 97.6065 66.3433 98.3047 64.9468 100.027C63.5504 101.749 63.1315 104.123 63.6901 106.264C65.645 106.311 67.5535 105.38 68.8568 103.658C70.1601 101.935 70.6256 99.8408 70.2998 97.8392ZM64.2486 102.54C65.133 100.213 67.1811 98.584 69.4154 98.2582C67.9724 100.027 66.2036 101.423 64.2486 102.54Z" fill="url(#paint3_linear_5001_237)"/>
<path d="M56.9406 104.835C58.6163 106.511 60.711 106.884 62.5728 106.372C62.5263 104.137 61.735 101.903 60.1989 100.227C58.6163 98.5516 56.6148 97.8534 54.7064 98.2258C54.4736 100.646 55.2649 103.206 56.9406 104.835ZM55.5908 98.6447C57.825 98.924 59.9662 100.507 61.223 102.741C59.1284 101.903 57.1734 100.646 55.5908 98.6447Z" fill="url(#paint4_linear_5001_237)"/>
<path d="M70.9051 105.473C68.9501 105.473 67.0417 106.311 65.8315 108.173C64.6213 110.034 64.4351 112.408 65.1798 114.503C67.1348 114.363 68.9036 113.2 70.0673 111.384C71.1844 109.569 71.4171 107.428 70.9051 105.473ZM65.366 110.733C66.0177 108.359 67.8796 106.543 70.0673 105.985C68.8105 107.847 67.2279 109.429 65.366 110.733Z" fill="url(#paint5_linear_5001_237)"/>
<path d="M58.3371 113.805C60.1524 115.294 62.2936 115.48 64.1089 114.736C63.8762 112.548 62.8522 110.407 61.1299 108.917C59.4077 107.428 57.3131 106.916 55.4512 107.474C55.4512 109.941 56.5218 112.362 58.3371 113.805ZM56.3356 107.847C58.6164 107.893 60.8506 109.243 62.3401 111.291C60.199 110.733 58.1044 109.615 56.3356 107.847Z" fill="url(#paint6_linear_5001_237)"/>
<path d="M72.2545 113.013C70.2995 113.2 68.4842 114.224 67.4601 116.225C66.4361 118.18 66.4827 120.601 67.4601 122.556C69.3686 122.23 71.0443 120.926 71.9752 118.971C72.9527 117.016 72.9527 114.875 72.2545 113.013ZM67.274 118.785C67.6929 116.365 69.3686 114.363 71.4632 113.572C70.4392 115.574 68.9962 117.296 67.274 118.785Z" fill="url(#paint7_linear_5001_237)"/>
<path d="M60.5716 122.509C62.5266 123.812 64.6677 123.766 66.39 122.881C65.9245 120.694 64.7143 118.692 62.8524 117.389C60.9905 116.086 58.8494 115.806 57.0806 116.551C57.3598 118.925 58.6166 121.252 60.5716 122.509ZM58.0115 116.784C60.2923 116.598 62.6662 117.761 64.3419 119.623C62.1077 119.251 59.9665 118.366 58.0115 116.784Z" fill="url(#paint8_linear_5001_237)"/>
<path d="M74.3492 120.321C72.4408 120.694 70.7185 121.904 69.8807 123.998C69.0428 126.046 69.3687 128.42 70.4858 130.329C72.3477 129.817 73.8837 128.327 74.6285 126.326C75.4198 124.231 75.2336 122.09 74.3492 120.321ZM69.9738 126.558C70.16 124.091 71.6029 121.95 73.651 120.973C72.7666 123.067 71.5098 124.883 69.9738 126.558Z" fill="url(#paint9_linear_5001_237)"/>
<path d="M63.6896 130.934C65.7842 132.005 67.8788 131.772 69.508 130.748C68.8097 128.653 67.4133 126.745 65.4118 125.628C63.4103 124.511 61.2691 124.418 59.5469 125.348C60.1054 127.722 61.5949 129.864 63.6896 130.934ZM60.5709 125.488C62.8052 125.069 65.3187 125.954 67.1806 127.676C64.8998 127.536 62.619 126.885 60.5709 125.488Z" fill="url(#paint10_linear_5001_237)"/>
<path d="M77.189 127.397C75.3271 127.955 73.7445 129.352 73.1394 131.493C72.5343 133.634 73.0463 135.961 74.3961 137.73C76.2115 137.032 77.6079 135.403 78.1199 133.308C78.6319 131.213 78.213 129.072 77.189 127.397ZM73.4652 134.053C73.4187 131.586 74.6289 129.305 76.5373 128.095C75.8857 130.283 74.8151 132.238 73.4652 134.053Z" fill="url(#paint11_linear_5001_237)"/>
<path d="M67.6 139.033C69.7877 139.918 71.8824 139.499 73.3719 138.242C72.4875 136.194 70.9049 134.472 68.8102 133.541C66.7156 132.61 64.5745 132.749 62.9453 133.867C63.7366 136.147 65.4123 138.149 67.6 139.033ZM63.9693 133.913C66.1571 133.308 68.7172 133.913 70.7652 135.449C68.4844 135.542 66.1571 135.077 63.9693 133.913Z" fill="url(#paint12_linear_5001_237)"/>
<path d="M80.6795 134.146C78.8641 134.891 77.4212 136.427 77.0488 138.614C76.6299 140.802 77.4212 143.083 78.9572 144.712C80.6795 143.828 81.8897 142.059 82.2155 139.918C82.5414 137.823 81.9362 135.775 80.6795 134.146ZM77.6539 141.174C77.3281 138.707 78.3521 136.334 80.1209 134.937C79.702 137.171 78.8176 139.22 77.6539 141.174Z" fill="url(#paint13_linear_5001_237)"/>
<path d="M72.3477 146.714C74.582 147.365 76.6766 146.76 78.0265 145.364C76.9093 143.409 75.1405 141.826 72.9994 141.128C70.8117 140.43 68.717 140.756 67.2275 142.012C68.205 144.247 70.0669 146.062 72.3477 146.714ZM68.205 141.966C70.2997 141.128 72.9528 141.5 75.094 142.85C72.8597 143.129 70.4858 142.943 68.205 141.966Z" fill="url(#paint14_linear_5001_237)"/>
<path d="M84.8696 140.569C83.1473 141.5 81.8906 143.176 81.7044 145.41C81.5182 147.645 82.5422 149.832 84.2179 151.322C85.8471 150.251 86.8711 148.389 86.9642 146.248C87.1038 144.06 86.266 142.059 84.8696 140.569ZM82.5888 147.877C82.0302 145.457 82.7749 142.943 84.4041 141.407C84.1714 143.688 83.5662 145.829 82.5888 147.877Z" fill="url(#paint15_linear_5001_237)"/>
<path d="M77.8407 153.975C80.1681 154.44 82.123 153.602 83.3798 152.066C82.0765 150.205 80.168 148.808 77.8872 148.296C75.653 147.784 73.5584 148.343 72.2085 149.739C73.4653 151.88 75.5599 153.509 77.8407 153.975ZM73.2325 149.599C75.2341 148.575 77.8872 148.668 80.2146 149.786C77.9803 150.298 75.6064 150.344 73.2325 149.599Z" fill="url(#paint16_linear_5001_237)"/>
<path d="M89.7098 146.574C88.0807 147.645 87.0101 149.46 87.0566 151.694C87.1032 153.929 88.3599 156.023 90.2218 157.373C91.7579 156.163 92.5492 154.208 92.4561 152.02C92.3165 149.832 91.2459 147.924 89.7098 146.574ZM88.1738 154.115C87.3359 151.741 87.8479 149.181 89.2909 147.458C89.384 149.739 88.9651 151.974 88.1738 154.115Z" fill="url(#paint17_linear_5001_237)"/>
<path d="M84.1239 160.678C86.4978 160.91 88.4062 159.886 89.4768 158.257C87.9873 156.535 85.8927 155.325 83.6119 154.999C81.331 154.72 79.3295 155.464 78.0728 157C79.5157 159.002 81.75 160.445 84.1239 160.678ZM79.0502 156.768C80.9587 155.511 83.6119 155.418 86.0323 156.302C83.8911 157 81.5172 157.233 79.0502 156.768Z" fill="url(#paint18_linear_5001_237)"/>
<path d="M170.004 87.0403C170.236 89.3676 171.353 91.3691 172.936 92.719C174.425 91.3226 175.31 89.0418 175.077 86.5282C174.798 84.0147 173.495 81.9666 171.726 80.8495C170.422 82.4786 169.771 84.7129 170.004 87.0403ZM172.238 81.827C173.96 83.6423 174.798 86.5748 174.379 89.1814C173.355 86.8075 172.61 84.3871 172.238 81.827Z" fill="url(#paint19_linear_5001_237)"/>
<path d="M167.025 95.8377C168.514 97.4203 170.469 98.165 172.424 97.9323C172.75 95.7446 172.099 93.3707 170.562 91.7881C169.026 90.2055 166.932 89.6934 165.023 90.1124C164.884 92.1604 165.582 94.2551 167.025 95.8377ZM165.908 90.4382C168.142 90.5778 170.33 91.9743 171.447 94.2085C169.399 93.3241 167.537 92.0674 165.908 90.4382Z" fill="url(#paint20_linear_5001_237)"/>
<path d="M180.57 89.0417C178.615 88.8555 176.66 89.7865 175.31 91.6018C173.914 93.4171 173.355 95.7445 173.542 97.9788C175.45 98.3511 177.498 97.6995 178.988 95.8841C180.477 94.0688 181.036 91.4622 180.57 89.0417ZM174.519 94.2084C175.59 91.8811 177.498 90.0658 179.732 89.5537C178.382 91.6484 176.567 93.1844 174.519 94.2084Z" fill="url(#paint21_linear_5001_237)"/>
<path d="M166.606 103.658C167.909 105.38 169.817 106.311 171.772 106.264C172.331 104.123 171.912 101.749 170.516 100.027C169.119 98.3047 167.118 97.6065 165.163 97.8392C164.837 99.8408 165.302 101.935 166.606 103.658ZM166.047 98.2582C168.281 98.6305 170.283 100.213 171.214 102.54C169.259 101.423 167.49 100.027 166.047 98.2582Z" fill="url(#paint22_linear_5001_237)"/>
<path d="M180.803 98.3047C178.895 97.9323 176.846 98.6305 175.31 100.306C173.728 101.982 172.937 104.216 172.937 106.45C174.798 107.009 176.893 106.59 178.569 104.914C180.198 103.285 180.989 100.725 180.803 98.3047ZM174.24 102.82C175.497 100.632 177.638 99.0029 179.872 98.7236C178.289 100.725 176.334 101.982 174.24 102.82Z" fill="url(#paint23_linear_5001_237)"/>
<path d="M165.396 111.384C166.513 113.2 168.328 114.363 170.283 114.503C171.028 112.455 170.842 110.034 169.632 108.173C168.421 106.311 166.466 105.426 164.558 105.473C164.046 107.428 164.279 109.569 165.396 111.384ZM165.396 105.985C167.583 106.543 169.445 108.359 170.097 110.733C168.235 109.429 166.653 107.847 165.396 105.985Z" fill="url(#paint24_linear_5001_237)"/>
<path d="M180.058 107.521C178.196 106.962 176.102 107.474 174.379 108.964C172.657 110.453 171.633 112.595 171.4 114.782C173.216 115.527 175.357 115.294 177.172 113.851C178.941 112.362 180.012 109.941 180.058 107.521ZM173.076 111.291C174.566 109.243 176.846 107.847 179.081 107.847C177.358 109.616 175.264 110.733 173.076 111.291Z" fill="url(#paint25_linear_5001_237)"/>
<path d="M163.44 118.972C164.371 120.88 166.047 122.183 167.955 122.556C168.886 120.554 168.979 118.18 167.955 116.225C166.931 114.27 165.07 113.2 163.161 113.014C162.509 114.875 162.509 117.017 163.44 118.972ZM163.952 113.572C166.047 114.363 167.723 116.318 168.142 118.785C166.466 117.296 165.023 115.574 163.952 113.572Z" fill="url(#paint26_linear_5001_237)"/>
<path d="M178.382 116.551C176.567 115.806 174.472 116.086 172.61 117.389C170.748 118.692 169.538 120.74 169.073 122.882C170.795 123.766 172.936 123.812 174.891 122.509C176.846 121.252 178.103 118.925 178.382 116.551ZM171.121 119.623C172.797 117.761 175.217 116.598 177.451 116.784C175.496 118.366 173.355 119.251 171.121 119.623Z" fill="url(#paint27_linear_5001_237)"/>
<path d="M160.787 126.279C161.532 128.281 163.068 129.771 164.93 130.283C166.094 128.421 166.373 126 165.535 123.952C164.697 121.904 162.975 120.647 161.067 120.275C160.229 122.09 160.043 124.231 160.787 126.279ZM161.811 120.973C163.813 121.951 165.302 124.092 165.489 126.559C163.953 124.883 162.696 123.068 161.811 120.973Z" fill="url(#paint28_linear_5001_237)"/>
<path d="M175.869 125.348C174.147 124.418 172.005 124.511 170.004 125.628C168.002 126.745 166.606 128.653 165.908 130.748C167.537 131.819 169.678 132.051 171.726 130.934C173.867 129.864 175.357 127.722 175.869 125.348ZM168.328 127.676C170.19 125.954 172.704 125.069 174.938 125.488C172.843 126.885 170.562 127.536 168.328 127.676Z" fill="url(#paint29_linear_5001_237)"/>
<path d="M157.39 133.262C157.948 135.356 159.298 136.939 161.113 137.684C162.463 135.915 162.975 133.587 162.37 131.446C161.765 129.305 160.136 127.909 158.321 127.35C157.25 129.072 156.831 131.214 157.39 133.262ZM158.926 128.095C160.834 129.305 162.091 131.539 161.998 134.053C160.648 132.238 159.577 130.283 158.926 128.095Z" fill="url(#paint30_linear_5001_237)"/>
<path d="M172.47 133.867C170.841 132.796 168.7 132.656 166.605 133.541C164.51 134.472 162.928 136.194 162.043 138.242C163.533 139.452 165.674 139.918 167.815 139.033C170.05 138.149 171.725 136.147 172.47 133.867ZM164.743 135.449C166.791 133.913 169.351 133.308 171.539 133.913C169.305 135.077 166.977 135.542 164.743 135.449Z" fill="url(#paint31_linear_5001_237)"/>
<path d="M153.246 139.964C153.572 142.106 154.782 143.828 156.505 144.759C157.994 143.13 158.785 140.849 158.413 138.661C157.994 136.473 156.551 134.937 154.782 134.193C153.526 135.775 152.92 137.823 153.246 139.964ZM155.341 134.937C157.11 136.334 158.134 138.708 157.808 141.175C156.644 139.22 155.76 137.172 155.341 134.937Z" fill="url(#paint32_linear_5001_237)"/>
<path d="M168.281 142.012C166.791 140.756 164.65 140.43 162.509 141.128C160.321 141.826 158.553 143.409 157.482 145.364C158.878 146.714 160.926 147.365 163.161 146.714C165.395 146.062 167.257 144.247 168.281 142.012ZM160.368 142.85C162.556 141.547 165.162 141.128 167.257 141.966C164.976 142.943 162.602 143.13 160.368 142.85Z" fill="url(#paint33_linear_5001_237)"/>
<path d="M148.452 146.248C148.545 148.436 149.569 150.298 151.199 151.322C152.874 149.832 153.898 147.645 153.712 145.41C153.526 143.176 152.269 141.5 150.547 140.569C149.197 142.059 148.359 144.06 148.452 146.248ZM151.059 141.407C152.688 142.943 153.479 145.457 152.874 147.877C151.897 145.829 151.292 143.688 151.059 141.407Z" fill="url(#paint34_linear_5001_237)"/>
<path d="M163.208 149.739C161.858 148.343 159.763 147.784 157.529 148.296C155.295 148.808 153.386 150.205 152.037 152.067C153.247 153.556 155.248 154.394 157.576 153.975C159.903 153.51 161.998 151.88 163.208 149.739ZM155.248 149.786C157.576 148.669 160.229 148.529 162.23 149.6C159.857 150.344 157.483 150.298 155.248 149.786Z" fill="url(#paint35_linear_5001_237)"/>
<path d="M143.006 152.02C142.867 154.208 143.704 156.163 145.241 157.373C147.056 156.07 148.313 153.929 148.406 151.694C148.452 149.46 147.382 147.645 145.753 146.574C144.217 147.924 143.146 149.833 143.006 152.02ZM146.125 147.459C147.614 149.181 148.08 151.741 147.242 154.115C146.497 151.974 146.078 149.739 146.125 147.459Z" fill="url(#paint36_linear_5001_237)"/>
<path d="M157.39 157C156.18 155.464 154.178 154.72 151.851 154.999C149.57 155.278 147.475 156.488 145.986 158.257C147.056 159.886 148.965 160.91 151.339 160.678C153.713 160.445 155.947 159.002 157.39 157ZM149.43 156.256C151.851 155.371 154.504 155.511 156.412 156.721C153.945 157.233 151.571 157 149.43 156.256Z" fill="url(#paint37_linear_5001_237)"/>
<path d="M117.731 151.601L120.896 157.978L127.971 159.048L122.851 164.029L124.061 171.058L117.731 167.753L111.401 171.058L112.611 164.029L107.491 159.048L114.566 157.978L117.731 151.601Z" fill="#F0C456"/>
<path d="M127.972 159.049L117.731 162.353L122.852 164.029L127.972 159.049Z" fill="#CE8522"/>
<path d="M117.731 151.601V162.353L120.897 157.978L117.731 151.601Z" fill="#CE8522"/>
<path d="M107.491 159.048L117.731 162.353L114.566 157.978L107.491 159.048Z" fill="#CE8522"/>
<path d="M111.4 171.057L117.731 162.353L112.611 164.029L111.4 171.057Z" fill="#CE8522"/>
<path d="M124.062 171.057L117.731 162.353V167.752L124.062 171.057Z" fill="#CE8522"/>
<path d="M98.8329 157.326L100.648 160.957L104.651 161.562L101.765 164.401L102.464 168.358L98.8329 166.496L95.2487 168.358L95.947 164.401L93.061 161.562L97.0641 160.957L98.8329 157.326Z" fill="#F0C456"/>
<path d="M104.651 161.562L98.833 163.424L101.765 164.401L104.651 161.562Z" fill="#CE8522"/>
<path d="M98.833 157.326V163.424L100.648 160.957L98.833 157.326Z" fill="#CE8522"/>
<path d="M93.061 161.562L98.8329 163.424L97.0641 160.957L93.061 161.562Z" fill="#CE8522"/>
<path d="M95.249 168.358L98.8331 163.424L95.9472 164.401L95.249 168.358Z" fill="#CE8522"/>
<path d="M102.464 168.358L98.833 163.424V166.496L102.464 168.358Z" fill="#CE8522"/>
<path d="M136.63 157.326L138.399 160.957L142.402 161.562L139.516 164.401L140.214 168.358L136.63 166.496L132.999 168.358L133.697 164.401L130.812 161.562L134.815 160.957L136.63 157.326Z" fill="#CE8522"/>
<path d="M142.401 161.562L136.629 163.424L139.515 164.401L142.401 161.562Z" fill="#F0C456"/>
<path d="M136.629 157.326V163.424L138.398 160.957L136.629 157.326Z" fill="#F0C456"/>
<path d="M130.812 161.562L136.63 163.424L134.815 160.957L130.812 161.562Z" fill="#F0C456"/>
<path d="M132.999 168.358L136.63 163.424L133.697 164.401L132.999 168.358Z" fill="#F0C456"/>
<path d="M140.214 168.358L136.629 163.424V166.496L140.214 168.358Z" fill="#F0C456"/>
<path d="M143.379 128.514L137.747 102.54C137.607 101.935 137.048 101.47 136.443 101.47H117.731H98.9728C98.3677 101.47 97.8091 101.889 97.6695 102.54L92.0373 128.514C91.8511 129.398 92.5028 130.189 93.3872 130.189H117.731H142.029C142.913 130.189 143.565 129.352 143.379 128.514Z" fill="url(#paint38_linear_5001_237)"/>
<path d="M143.379 128.514L137.747 102.54C137.7 102.261 137.56 102.028 137.328 101.842L142.82 127.257C143.006 128.141 142.355 128.932 141.47 128.932H117.731H93.9457C93.0613 128.932 92.4097 128.095 92.5959 127.257L98.0884 101.842C97.9022 102.028 97.7626 102.261 97.6695 102.54L92.0373 128.514C91.8511 129.398 92.5028 130.189 93.3872 130.189H117.731H142.029C142.913 130.189 143.565 129.351 143.379 128.514Z" fill="white"/>
<path d="M98.74 102.587L94.4111 127.955C94.4111 127.955 107.77 122.742 117.731 128.42V104.309C111.308 100.678 103.488 101.516 98.74 102.587Z" fill="white"/>
<path d="M101.394 98.9096L97.6699 124.278C97.6699 124.278 109.167 119.065 117.732 124.743V100.632C112.239 96.9547 105.49 97.8391 101.394 98.9096Z" fill="url(#paint39_linear_5001_237)"/>
<path d="M97.6694 124.278L101.393 98.9095L98.74 102.587L94.4111 127.955L97.6694 124.278Z" fill="#D2D2D2"/>
<g opacity="0.1">
<path d="M116.055 101.982C111.447 99.7474 106.327 100.12 102.649 100.911Z" fill="url(#paint40_linear_5001_237)"/>
<path d="M116.055 102.308C116.009 102.308 115.962 102.308 115.916 102.261C111.354 100.027 106.234 100.492 102.743 101.237C102.557 101.284 102.371 101.144 102.324 100.958C102.277 100.772 102.417 100.585 102.603 100.539C106.187 99.7475 111.494 99.3285 116.195 101.609C116.381 101.702 116.428 101.889 116.335 102.075C116.288 102.261 116.195 102.308 116.055 102.308Z" fill="black"/>
<path d="M116.055 104.169C111.447 101.935 106.327 102.308 102.649 103.099Z" fill="url(#paint41_linear_5001_237)"/>
<path d="M116.055 104.495C116.009 104.495 115.962 104.495 115.916 104.449C111.354 102.214 106.234 102.68 102.743 103.425C102.557 103.471 102.371 103.332 102.324 103.145C102.277 102.959 102.417 102.773 102.603 102.727C106.187 101.935 111.494 101.516 116.195 103.797C116.381 103.89 116.428 104.076 116.335 104.263C116.288 104.449 116.195 104.495 116.055 104.495Z" fill="black"/>
<path d="M116.055 106.311C111.447 104.076 106.327 104.449 102.649 105.24Z" fill="url(#paint42_linear_5001_237)"/>
<path d="M116.055 106.683C116.009 106.683 115.962 106.683 115.916 106.636C111.354 104.402 106.234 104.868 102.743 105.612C102.557 105.659 102.371 105.519 102.324 105.333C102.277 105.147 102.417 104.961 102.603 104.914C106.187 104.123 111.494 103.704 116.195 105.985C116.381 106.078 116.428 106.264 116.335 106.45C116.288 106.59 116.195 106.683 116.055 106.683Z" fill="black"/>
<path d="M116.055 108.498C111.447 106.264 106.327 106.636 102.649 107.428Z" fill="url(#paint43_linear_5001_237)"/>
<path d="M116.055 108.824C116.009 108.824 115.962 108.824 115.916 108.778C111.354 106.543 106.234 107.009 102.743 107.754C102.557 107.8 102.371 107.66 102.324 107.474C102.277 107.288 102.417 107.102 102.603 107.055C106.187 106.264 111.494 105.845 116.195 108.126C116.381 108.219 116.428 108.405 116.335 108.591C116.288 108.778 116.195 108.824 116.055 108.824Z" fill="black"/>
<path d="M116.055 110.686C111.261 108.452 105.908 108.824 102.091 109.615Z" fill="url(#paint44_linear_5001_237)"/>
<path d="M116.056 111.012C116.009 111.012 115.963 111.012 115.916 110.965C111.169 108.731 105.816 109.197 102.138 109.941C101.952 109.988 101.766 109.848 101.719 109.662C101.673 109.476 101.813 109.29 101.999 109.243C105.769 108.452 111.262 108.033 116.196 110.314C116.382 110.407 116.428 110.593 116.382 110.779C116.289 110.919 116.196 111.012 116.056 111.012Z" fill="black"/>
<path d="M116.056 112.827C111.122 110.593 105.676 110.965 101.719 111.757Z" fill="url(#paint45_linear_5001_237)"/>
<path d="M116.055 113.153C116.009 113.153 115.962 113.153 115.916 113.107C111.028 110.872 105.536 111.291 101.812 112.083C101.626 112.129 101.439 111.989 101.393 111.803C101.346 111.617 101.486 111.431 101.672 111.384C105.536 110.593 111.168 110.174 116.195 112.455C116.381 112.548 116.428 112.734 116.381 112.92C116.288 113.107 116.195 113.153 116.055 113.153Z" fill="black"/>
<path d="M116.055 115.015C111.028 112.781 105.443 113.153 101.439 113.944Z" fill="url(#paint46_linear_5001_237)"/>
<path d="M116.055 115.341C116.008 115.341 115.962 115.341 115.915 115.294C110.935 113.06 105.302 113.479 101.486 114.27C101.299 114.317 101.113 114.177 101.067 113.991C101.02 113.805 101.16 113.619 101.346 113.572C105.256 112.781 111.028 112.362 116.194 114.643C116.381 114.736 116.427 114.922 116.381 115.108C116.288 115.248 116.194 115.341 116.055 115.341Z" fill="black"/>
<path d="M116.055 117.156C110.842 114.922 105.024 115.294 100.881 116.086Z" fill="url(#paint47_linear_5001_237)"/>
<path d="M116.055 117.529C116.009 117.529 115.962 117.529 115.916 117.482C110.749 115.248 104.884 115.667 100.927 116.458C100.741 116.504 100.555 116.365 100.509 116.179C100.462 115.992 100.602 115.806 100.788 115.76C104.884 114.968 110.842 114.549 116.195 116.83C116.381 116.923 116.428 117.11 116.381 117.296C116.288 117.435 116.195 117.529 116.055 117.529Z" fill="black"/>
<path d="M116.056 119.344C110.656 117.11 104.651 117.482 100.369 118.273Z" fill="url(#paint48_linear_5001_237)"/>
<path d="M116.056 119.669C116.009 119.669 115.962 119.669 115.916 119.623C110.563 117.389 104.512 117.808 100.416 118.599C100.23 118.645 100.043 118.506 99.9968 118.32C99.9503 118.133 100.09 117.947 100.276 117.901C104.465 117.109 110.656 116.69 116.149 118.971C116.335 119.064 116.381 119.251 116.335 119.437C116.288 119.623 116.195 119.669 116.056 119.669Z" fill="black"/>
<path d="M100.043 121.392C103.488 120.321 110.237 118.878 116.056 121.764Z" fill="url(#paint49_linear_5001_237)"/>
<path d="M116.055 122.137C116.009 122.137 115.962 122.137 115.916 122.09C110.191 119.297 103.581 120.694 100.136 121.764C99.9502 121.811 99.764 121.718 99.7174 121.532C99.6709 121.345 99.764 121.159 99.9502 121.113C103.488 119.995 110.284 118.599 116.242 121.485C116.428 121.578 116.474 121.764 116.381 121.95C116.288 122.044 116.195 122.137 116.055 122.137Z" fill="black"/>
</g>
<path d="M136.723 102.587L141.052 127.955C141.052 127.955 127.693 122.742 117.731 128.42V104.309C124.155 100.678 131.975 101.516 136.723 102.587Z" fill="url(#paint50_linear_5001_237)"/>
<path d="M134.069 98.9096L137.793 124.278C137.793 124.278 126.296 119.065 117.731 124.743V100.632C123.224 96.9547 129.973 97.8391 134.069 98.9096Z" fill="url(#paint51_linear_5001_237)"/>
<path d="M137.793 124.278L134.069 98.9095L136.723 102.587L141.051 127.955L137.793 124.278Z" fill="#969696"/>
<g opacity="0.1">
<path d="M119.407 101.982C124.015 99.7474 129.135 100.12 132.812 100.911Z" fill="url(#paint52_linear_5001_237)"/>
<path d="M119.407 102.308C119.453 102.308 119.5 102.308 119.547 102.261C124.108 100.027 129.228 100.492 132.719 101.237C132.906 101.284 133.092 101.144 133.138 100.958C133.185 100.772 133.045 100.585 132.859 100.539C129.275 99.7475 123.969 99.3285 119.267 101.609C119.081 101.702 119.035 101.889 119.128 102.075C119.174 102.261 119.267 102.308 119.407 102.308Z" fill="black"/>
<path d="M119.407 104.169C124.015 101.935 129.135 102.308 132.812 103.099Z" fill="url(#paint53_linear_5001_237)"/>
<path d="M119.407 104.495C119.453 104.495 119.5 104.495 119.547 104.449C124.108 102.214 129.228 102.68 132.719 103.425C132.906 103.471 133.092 103.332 133.138 103.145C133.185 102.959 133.045 102.773 132.859 102.727C129.275 101.935 123.969 101.516 119.267 103.797C119.081 103.89 119.035 104.076 119.128 104.263C119.174 104.449 119.267 104.495 119.407 104.495Z" fill="black"/>
<path d="M119.407 106.311C124.015 104.076 129.135 104.449 132.812 105.24Z" fill="url(#paint54_linear_5001_237)"/>
<path d="M119.407 106.683C119.453 106.683 119.5 106.683 119.547 106.636C124.108 104.402 129.228 104.868 132.719 105.612C132.906 105.659 133.092 105.519 133.138 105.333C133.185 105.147 133.045 104.961 132.859 104.914C129.275 104.123 123.969 103.704 119.267 105.985C119.081 106.078 119.035 106.264 119.128 106.45C119.174 106.59 119.267 106.683 119.407 106.683Z" fill="black"/>
<path d="M119.407 108.498C124.015 106.264 129.135 106.636 132.812 107.428Z" fill="url(#paint55_linear_5001_237)"/>
<path d="M119.407 108.824C119.453 108.824 119.5 108.824 119.547 108.778C124.108 106.543 129.228 107.009 132.719 107.754C132.906 107.8 133.092 107.66 133.138 107.474C133.185 107.288 133.045 107.102 132.859 107.055C129.275 106.264 123.969 105.845 119.267 108.126C119.081 108.219 119.035 108.405 119.128 108.591C119.174 108.778 119.267 108.824 119.407 108.824Z" fill="black"/>
<path d="M119.407 110.686C124.201 108.452 129.554 108.824 133.371 109.615Z" fill="url(#paint56_linear_5001_237)"/>
<path d="M119.407 111.012C119.454 111.012 119.5 111.012 119.547 110.965C124.295 108.731 129.647 109.197 133.325 109.941C133.511 109.988 133.697 109.848 133.744 109.662C133.79 109.476 133.65 109.29 133.464 109.243C129.694 108.452 124.201 108.033 119.267 110.314C119.081 110.407 119.035 110.593 119.081 110.779C119.174 110.919 119.267 111.012 119.407 111.012Z" fill="black"/>
<path d="M119.407 112.827C124.341 110.593 129.787 110.965 133.743 111.757Z" fill="url(#paint57_linear_5001_237)"/>
<path d="M119.407 113.153C119.454 113.153 119.5 113.153 119.547 113.107C124.434 110.872 129.927 111.291 133.65 112.083C133.837 112.129 134.023 111.989 134.069 111.803C134.116 111.617 133.976 111.431 133.79 111.384C129.927 110.593 124.295 110.174 119.267 112.455C119.081 112.548 119.035 112.734 119.081 112.92C119.174 113.107 119.267 113.153 119.407 113.153Z" fill="black"/>
<path d="M119.407 115.015C124.434 112.781 130.019 113.153 134.023 113.944Z" fill="url(#paint58_linear_5001_237)"/>
<path d="M119.407 115.341C119.454 115.341 119.5 115.341 119.547 115.294C124.527 113.06 130.159 113.479 133.976 114.27C134.163 114.317 134.349 114.177 134.395 113.991C134.442 113.805 134.302 113.619 134.116 113.572C130.206 112.781 124.434 112.362 119.267 114.643C119.081 114.736 119.035 114.922 119.081 115.108C119.174 115.248 119.267 115.341 119.407 115.341Z" fill="black"/>
<path d="M119.407 117.156C124.62 114.922 130.438 115.294 134.581 116.086Z" fill="url(#paint59_linear_5001_237)"/>
<path d="M119.407 117.529C119.454 117.529 119.5 117.529 119.547 117.482C124.713 115.248 130.578 115.667 134.535 116.458C134.721 116.504 134.907 116.365 134.954 116.179C135 115.992 134.861 115.806 134.675 115.76C130.578 114.968 124.62 114.549 119.267 116.83C119.081 116.923 119.035 117.11 119.081 117.296C119.174 117.435 119.267 117.529 119.407 117.529Z" fill="black"/>
<path d="M119.407 119.344C124.806 117.11 130.811 117.482 135.093 118.273Z" fill="url(#paint60_linear_5001_237)"/>
<path d="M119.407 119.669C119.454 119.669 119.5 119.669 119.547 119.623C124.9 117.389 130.951 117.808 135.047 118.599C135.233 118.645 135.42 118.506 135.466 118.32C135.513 118.133 135.373 117.947 135.187 117.901C130.998 117.109 124.807 116.69 119.314 118.971C119.128 119.064 119.082 119.251 119.128 119.437C119.175 119.623 119.268 119.669 119.407 119.669Z" fill="black"/>
<path d="M135.419 121.392C131.974 120.321 125.225 118.878 119.407 121.764Z" fill="url(#paint61_linear_5001_237)"/>
<path d="M119.407 122.137C119.454 122.137 119.5 122.137 119.547 122.09C125.272 119.297 131.882 120.694 135.326 121.764C135.512 121.811 135.699 121.718 135.745 121.532C135.792 121.345 135.699 121.159 135.512 121.113C131.975 119.995 125.179 118.599 119.221 121.485C119.035 121.578 118.988 121.764 119.081 121.95C119.174 122.044 119.267 122.137 119.407 122.137Z" fill="black"/>
</g>
<path d="M106.886 73.3552C106.374 73.9604 105.908 74.5189 105.396 75.124C105.536 74.1465 105.769 73.2156 106.094 72.2847C106.001 72.145 105.908 72.0519 105.815 71.9123C105.815 71.8657 105.769 71.8657 105.769 71.8192C105.582 71.9588 105.396 72.145 105.21 72.3312C105.303 72.0519 105.396 71.7726 105.489 71.4934C102.883 68.4678 99.2054 66.4197 95.2954 65.7681C95.4816 68.3747 96.2729 70.9348 97.5297 73.2156C98.1813 73.2156 98.7864 73.2622 99.4381 73.3087C98.8795 73.4483 98.3675 73.588 97.809 73.7276C97.8555 73.8207 97.902 73.9138 97.9486 74.0069C98.7864 74.1 99.6243 74.2862 100.416 74.4258C99.7639 74.5655 99.1588 74.7517 98.5072 74.8913C101.16 78.8013 105.163 81.9199 109.632 83.456C109.818 79.9649 108.841 76.3343 106.886 73.3552Z" fill="url(#paint62_linear_5001_237)"/>
<path d="M103.814 75.2504C104.093 73.8074 104.419 72.1783 104.745 70.6422C104.419 70.3164 104.093 70.0371 103.767 69.7578C103.814 71.5731 103.86 73.435 103.814 75.2504Z" fill="white"/>
<path d="M107.816 74.9846C107.491 76.4276 107.304 77.8705 107.118 79.4066C107.63 78.5687 108.096 77.6843 108.608 76.8465C108.375 76.1948 108.096 75.5897 107.816 74.9846Z" fill="white"/>
<path d="M103.022 74.1329C103.209 72.6434 103.441 71.1073 103.627 69.6178C103.395 69.3851 103.115 69.1989 102.883 69.0127C102.836 70.6884 102.883 72.4106 103.022 74.1329Z" fill="white"/>
<path d="M102.603 68.7802C102.231 68.5009 101.812 68.2216 101.439 67.9889C101.579 69.5715 101.812 71.1541 102.091 72.7367L102.138 72.7832C102.184 72.9229 102.184 73.0625 102.231 73.2022C102.231 71.7592 102.37 70.2697 102.603 68.7802Z" fill="white"/>
<path d="M108.701 77.0326C108.282 78.1963 107.817 79.4065 107.444 80.5236C107.956 79.6392 108.468 78.8014 109.027 77.9635C108.887 77.6843 108.794 77.3584 108.701 77.0326Z" fill="white"/>
<path d="M105.303 77.3116C103.674 77.3116 101.998 77.265 100.369 77.265C100.648 77.5908 100.928 77.8701 101.207 78.1494C102.603 77.8701 103.953 77.5908 105.303 77.3116Z" fill="white"/>
<path d="M106.7 79.5459C105.35 79.4993 103.954 79.4528 102.557 79.4062C102.883 79.6855 103.255 79.9648 103.581 80.2441C104.652 80.0579 105.676 79.8252 106.7 79.5459Z" fill="white"/>
<path d="M102.277 79.1271C103.534 78.8478 104.838 78.6151 106.094 78.3358C104.512 78.1962 102.976 78.1962 101.393 78.2892C101.672 78.5685 101.952 78.8478 102.277 79.1271Z" fill="white"/>
<path d="M111.727 87.3659C111.587 87.3659 111.447 87.2728 111.447 87.0866C111.447 86.9469 111.54 86.8073 111.727 86.8073C111.866 86.8073 112.006 86.9004 112.006 87.0866C112.006 87.1797 111.959 87.2728 111.866 87.3193C112.052 87.5986 112.192 87.8779 112.332 88.1572C112.239 87.5055 112.099 86.8073 111.913 86.1556C111.587 85.9229 111.261 85.6902 110.935 85.4109C107.724 78.9408 103.115 73.1224 97.5298 68.5143C102.324 74.0068 106.7 79.7787 110.749 85.8298C110.842 86.1556 110.889 86.528 110.842 86.9004C111.308 87.2728 111.727 87.7382 112.146 88.2503C112.052 87.971 111.913 87.6917 111.773 87.4124C111.82 87.3659 111.773 87.3659 111.727 87.3659Z" fill="url(#paint63_linear_5001_237)"/>
<path d="M97.623 68.4678C101.766 73.2156 105.583 78.1496 109.12 83.2698C109.306 83.3628 109.493 83.4094 109.679 83.5025C109.679 83.3163 109.679 83.0836 109.679 82.8974C106.56 77.4048 102.464 72.4708 97.623 68.4678Z" fill="url(#paint64_linear_5001_237)"/>
<path d="M117.731 148.063C95.5282 148.063 77.4214 130.003 77.4214 107.754V72.4243C77.4214 71.7726 77.9334 71.2606 78.5851 71.2606C85.474 71.2606 91.0597 65.675 91.0597 58.786C91.0597 58.1343 91.5717 57.6223 92.2234 57.6223H143.192C143.844 57.6223 144.356 58.1343 144.356 58.786C144.356 65.675 149.942 71.2606 156.831 71.2606C157.482 71.2606 157.994 71.7726 157.994 72.4243V107.754C158.041 129.957 139.934 148.063 117.731 148.063ZM79.7487 73.5414V107.754C79.7487 128.7 96.785 145.736 117.731 145.736C138.677 145.736 155.714 128.7 155.714 107.754V73.5414C148.452 72.9829 142.68 67.1645 142.122 59.9497H93.387C92.8285 67.1645 87.0101 72.9363 79.7487 73.5414Z" fill="url(#paint65_linear_5001_237)"/>
<path d="M83.3327 96.5358C82.7741 97.5598 83.1465 98.8631 84.1705 99.4682L94.504 105.1L94.9695 102.913L83.3327 96.5358Z" fill="url(#paint66_linear_5001_237)"/>
<path d="M84.217 102.121C83.6584 103.145 84.0308 104.449 85.0548 105.054L93.4798 109.662L93.9453 107.474L84.217 102.121Z" fill="url(#paint67_linear_5001_237)"/>
<path d="M85.1017 107.661C84.5432 108.685 84.9156 109.988 85.9396 110.593L92.5027 114.177L92.9682 111.99L85.1017 107.661Z" fill="url(#paint68_linear_5001_237)"/>
<path d="M86.0329 113.246C85.4743 114.27 85.8467 115.574 86.8707 116.179L91.572 118.739L92.0375 116.551L86.0329 113.246Z" fill="url(#paint69_linear_5001_237)"/>
<path d="M151.292 99.4682C152.316 98.9097 152.735 97.6064 152.129 96.5358L140.493 102.913L140.958 105.1L151.292 99.4682Z" fill="url(#paint70_linear_5001_237)"/>
<path d="M150.36 105.007C151.384 104.449 151.803 103.146 151.198 102.075L141.423 107.428L141.889 109.616L150.36 105.007Z" fill="url(#paint71_linear_5001_237)"/>
<path d="M149.477 110.593C150.501 110.035 150.919 108.731 150.314 107.661L142.401 111.99L142.867 114.177L149.477 110.593Z" fill="url(#paint72_linear_5001_237)"/>
<path d="M148.592 116.179C149.616 115.62 150.035 114.317 149.43 113.246L143.425 116.551L143.891 118.739L148.592 116.179Z" fill="url(#paint73_linear_5001_237)"/>
<path d="M135.684 69.9336L131.207 77.5493L123.096 73.6913L133.335 68.8186L135.684 69.9336Z" fill="url(#paint74_linear_5001_237)"/>
<path d="M143.709 73.7359L133.326 78.5529L131.207 77.5493L135.684 69.9336L143.709 73.7359Z" fill="url(#paint75_linear_5001_237)"/>
<path d="M130.728 78.3745L128.139 82.7566C127.362 82.2882 126.787 81.8199 126.471 81.5077V76.3674L130.728 78.3745Z" fill="url(#paint76_linear_5001_237)"/>
<path d="M140.277 76.3674V81.5189C135.435 85.8341 130.699 84.3065 128.148 82.7677L130.737 78.3856L133.374 79.6345L140.277 76.3674Z" fill="url(#paint77_linear_5001_237)"/>
<path d="M142.731 74.9848H142.348V79.9913H142.731V74.9848Z" fill="url(#paint78_linear_5001_237)"/>
<path d="M141.869 84.2284C141.869 85.7003 142.54 86.8822 142.54 86.8822C142.54 86.8822 143.211 85.6891 143.211 84.2284C143.211 82.7566 142.54 81.5746 142.54 81.5746C142.54 81.5746 141.869 82.7566 141.869 84.2284Z" fill="url(#paint79_linear_5001_237)"/>
<path d="M21.1408 107.685L24.3881 107.928L24.2288 110.051L14.8026 109.344L15.0522 106.018C15.2303 103.643 16.3208 102.53 18.3234 102.681C19.27 102.752 20.0112 103.151 20.5472 103.879C21.0791 104.602 21.3023 105.533 21.2168 106.672L21.1408 107.685ZM16.5921 107.343L19.5304 107.564L19.593 106.729C19.6778 105.598 19.225 104.996 18.2347 104.922C17.2662 104.849 16.7395 105.378 16.6547 106.508L16.5921 107.343Z" fill="white"/>
<path d="M25.9693 95.6855L25.6438 97.6294L24.6881 97.4694L24.6838 97.4954C25.3545 98.0666 25.6166 98.79 25.47 99.6655C25.3619 100.311 25.0946 100.79 24.6681 101.102C24.238 101.409 23.7174 101.511 23.1063 101.409C21.8147 101.192 21.1973 100.302 21.2541 98.7391L21.3161 96.8915C20.588 96.7696 20.1579 97.103 20.0258 97.8919C19.893 98.685 20.003 99.4787 20.3556 100.273L18.8083 100.014C18.7089 99.7032 18.6441 99.2913 18.6142 98.7784C18.5849 98.2611 18.6044 97.7987 18.6726 97.3913C18.9905 95.4929 20.0964 94.7023 21.9905 95.0194L25.9693 95.6855ZM22.9414 97.1636L22.4929 97.0885L22.4464 98.3239C22.4214 99.0058 22.6667 99.39 23.1825 99.4764C23.4165 99.5155 23.6228 99.4676 23.8014 99.3327C23.9763 99.1927 24.087 98.9839 24.1334 98.7066C24.198 98.3208 24.1184 97.9844 23.8947 97.6975C23.6666 97.4098 23.3489 97.2318 22.9414 97.1636Z" fill="white"/>
<path d="M26.2456 91.082L26.2388 91.1075L26.9972 91.3078L26.4653 93.3218L16.8035 90.7698L17.3354 88.7559L21.4525 89.8433L21.4593 89.8178C20.83 89.1198 20.6366 88.312 20.879 87.3942C21.1012 86.5529 21.5613 85.9813 22.2592 85.6793C22.9571 85.3773 23.8074 85.3587 24.8101 85.6236C25.8978 85.9109 26.7008 86.407 27.2191 87.1121C27.7374 87.8171 27.8793 88.6137 27.6447 89.5017C27.4326 90.3047 26.9663 90.8315 26.2456 91.082ZM23.4772 90.4122L24.1464 90.5889C24.567 90.7 24.9474 90.6709 25.2875 90.5017C25.6277 90.3325 25.8477 90.0588 25.9476 89.6806C26.0688 89.2218 25.9861 88.8204 25.6997 88.4766C25.4101 88.1274 24.9403 87.8669 24.2902 87.6952C23.7506 87.5527 23.2991 87.5585 22.9358 87.7125C22.5692 87.8611 22.3293 88.15 22.216 88.5791C22.1093 88.9828 22.1715 89.3582 22.4025 89.7056C22.6346 90.0487 22.9928 90.2842 23.4772 90.4122Z" fill="white"/>
<path d="M31.2513 78.2477L30.5278 80.194L27.0121 78.887C26.0318 78.5225 25.4114 78.6904 25.1511 79.3907C25.0256 79.7285 25.0519 80.0547 25.2303 80.3695C25.4086 80.6843 25.6976 80.916 26.0971 81.0645L29.7055 82.4059L28.9796 84.3584L22.6527 82.0063L23.3785 80.0538L24.3795 80.4259L24.3887 80.4012C23.7914 79.6494 23.6582 78.8286 23.9889 77.9389C24.5096 76.5384 25.6391 76.1613 27.3773 76.8075L31.2513 78.2477Z" fill="white"/>
<path d="M34.7074 70.8474L33.8556 72.6247L32.9818 72.2059L32.9704 72.2297C33.4563 72.9645 33.5075 73.7322 33.1238 74.5327C32.8408 75.1232 32.4512 75.5091 31.955 75.6903C31.4567 75.8657 30.9282 75.8195 30.3694 75.5517C29.1885 74.9857 28.8421 73.9596 29.3303 72.4733L29.9023 70.7154C29.2366 70.3963 28.7309 70.5974 28.3852 71.3186C28.0376 72.0438 27.9231 72.8369 28.0417 73.6978L26.6269 73.0197C26.6175 72.6936 26.6696 72.28 26.7831 71.7788C26.8985 71.2737 27.0454 70.8349 27.224 70.4624C28.0559 68.7266 29.3377 68.2738 31.0695 69.1038L34.7074 70.8474ZM31.3884 71.4276L30.9783 71.2311L30.591 72.4051C30.3778 73.0534 30.507 73.4905 30.9785 73.7165C31.1925 73.8191 31.404 73.8303 31.613 73.7501C31.8199 73.6641 31.9841 73.4943 32.1057 73.2407C32.2747 72.888 32.2916 72.5427 32.1562 72.205C32.0169 71.8653 31.7609 71.6062 31.3884 71.4276Z" fill="white"/>
<path d="M39.587 62.5982L38.4403 64.3922L30.4756 59.3014L31.6223 57.5074L39.587 62.5982Z" fill="white"/>
<path d="M45.0926 54.9698L43.8443 56.629L40.8471 54.3741C40.0113 53.7453 39.3688 53.7294 38.9197 54.3263C38.703 54.6143 38.6353 54.9346 38.7165 55.2871C38.7977 55.6397 39.0087 55.9441 39.3493 56.2004L42.4255 58.5148L41.1732 60.1793L35.7793 56.1212L37.0316 54.4566L37.8849 55.0987L37.9008 55.0776C37.5427 54.1867 37.6489 53.362 38.2196 52.6035C39.1179 51.4095 40.308 51.37 41.7899 52.485L45.0926 54.9698Z" fill="white"/>
<path d="M49.4287 49.9161C49.3458 50.2541 49.0986 50.6546 48.6869 51.1177C47.7118 52.2147 46.6544 52.2567 45.5146 51.2436L43.204 49.1897L42.477 50.0075L41.3291 48.9872L42.056 48.1693L40.9672 47.2015L41.9033 45.2554L43.4355 46.6174L44.4428 45.4842L45.5907 46.5046L44.5835 47.6378L46.6232 49.4508C47.1487 49.918 47.5968 49.943 47.9676 49.5258C48.1136 49.3616 48.2163 49.1501 48.2758 48.8914L49.4287 49.9161Z" fill="white"/>
<path d="M53.4271 42.1776L50.2553 45.2319C50.9857 45.889 51.7703 45.8137 52.6092 45.0059C53.1441 44.4908 53.4923 43.9115 53.6536 43.2681L54.6961 44.3507C54.4782 45.0241 54.0101 45.7068 53.2915 46.3988C52.5064 47.1547 51.6883 47.5247 50.837 47.5086C49.9827 47.4894 49.1806 47.0904 48.4307 46.3117C47.6534 45.5045 47.2719 44.6395 47.2862 43.7167C47.3006 42.7939 47.6496 42.0033 48.3333 41.3449C49.0424 40.6621 49.7927 40.3452 50.5843 40.3944C51.3791 40.4404 52.124 40.8244 52.819 41.5461L53.4271 42.1776ZM51.1488 42.5961C50.4782 41.8997 49.8612 41.8228 49.2977 42.3654C49.0572 42.5971 48.9443 42.898 48.959 43.2681C48.977 43.6352 49.1102 43.9858 49.3587 44.3199L51.1488 42.5961Z" fill="white"/>
<path d="M57.3911 36.1606C57.1111 36.2147 56.8422 36.3479 56.5844 36.5602C56.235 36.8479 56.0681 37.2017 56.0836 37.6216C56.0964 38.038 56.2843 38.4668 56.6475 38.9078L58.6966 41.396L57.0886 42.7202L52.7977 37.5096L54.4057 36.1854L55.2018 37.1522L55.2222 37.1355C54.8955 36.2203 55.063 35.4904 55.7245 34.9457C55.8941 34.806 56.0432 34.7174 56.1717 34.6799L57.3911 36.1606Z" fill="white"/>
<path d="M67.3 35.073L65.5949 36.2579L63.4546 33.1777C62.8578 32.3188 62.2526 32.1025 61.6391 32.5288C61.3432 32.7345 61.1786 33.0174 61.1453 33.3777C61.112 33.7379 61.217 34.0931 61.4602 34.4431L63.6569 37.6045L61.9463 38.7931L58.0946 33.2499L59.8052 32.0613L60.4146 32.9383L60.4362 32.9232C60.3751 31.965 60.7343 31.2151 61.5138 30.6734C62.7408 29.8208 63.8834 30.156 64.9416 31.6789L67.3 35.073Z" fill="white"/>
<path d="M74.3651 30.9704L72.6511 31.9434L72.1727 31.1007L72.1498 31.1137C72.1293 31.9945 71.733 32.654 70.961 33.0921C70.3916 33.4154 69.8514 33.5097 69.3405 33.3753C68.8313 33.2348 68.4237 32.8951 68.1178 32.3563C67.4714 31.2174 67.7728 30.1771 69.0221 29.2356L70.4954 28.1189C70.131 27.4768 69.601 27.3532 68.9054 27.748C68.206 28.145 67.6593 28.7307 67.2651 29.5052L66.4907 28.1409C66.6692 27.8677 66.948 27.5579 67.3273 27.2112C67.7104 26.8624 68.0816 26.586 68.4409 26.3821C70.1148 25.4319 71.4258 25.7919 72.3737 27.462L74.3651 30.9704ZM71.3089 29.5521L71.0844 29.1565L70.0962 29.8993C69.551 30.3098 69.4075 30.7425 69.6657 31.1973C69.7828 31.4036 69.95 31.5336 70.1674 31.5871C70.3864 31.6346 70.6181 31.5889 70.8627 31.4501C71.2029 31.257 71.4138 30.9832 71.4955 30.6286C71.575 30.2702 71.5128 29.9113 71.3089 29.5521Z" fill="white"/>
<path d="M80.2267 28.0729C80.0177 28.351 79.6328 28.6221 79.0722 28.886C77.7442 29.5111 76.7555 29.1339 76.106 27.7542L74.7893 24.9571L73.7992 25.4231L73.1451 24.0335L74.1351 23.5674L73.5146 22.2494L75.1406 20.8283L76.0138 22.6831L77.3855 22.0373L78.0396 23.4269L76.6679 24.0727L77.8302 26.5418C78.1297 27.1779 78.5319 27.3772 79.0369 27.1395C79.2357 27.0459 79.4133 26.8918 79.5698 26.6773L80.2267 28.0729Z" fill="white"/>
<path d="M80.399 19.6415C80.0725 19.7718 79.7669 19.7826 79.4822 19.6739C79.1958 19.561 78.9964 19.3638 78.884 19.0822C78.7684 18.7924 78.778 18.5141 78.9128 18.2474C79.0477 17.9807 79.2784 17.7821 79.6049 17.6518C79.9355 17.5199 80.2395 17.505 80.5168 17.6072C80.7983 17.7078 80.9968 17.903 81.1125 18.1928C81.2298 18.4866 81.2218 18.769 81.0886 19.0398C80.9595 19.309 80.7296 19.5096 80.399 19.6415ZM84.2521 26.5212L82.3175 27.2934L79.8153 21.0243L81.7499 20.2521L84.2521 26.5212Z" fill="white"/>
<path d="M90.0648 24.6693C88.9916 25.0069 88.0526 24.9729 87.2478 24.5674C86.4459 24.1563 85.8827 23.4351 85.5583 22.4039C85.2233 21.3391 85.2801 20.4068 85.7287 19.6069C86.1759 18.8028 86.9424 18.2299 88.0282 17.8883C89.0971 17.552 90.0305 17.5901 90.8282 18.0025C91.6246 18.4107 92.1785 19.1095 92.4897 20.0988C92.826 21.1678 92.7774 22.1113 92.3438 22.9296C91.9143 23.7465 91.1547 24.3264 90.0648 24.6693ZM88.4692 19.4219C87.9997 19.5696 87.6857 19.8457 87.5274 20.2503C87.369 20.6548 87.3828 21.1526 87.5688 21.7437C87.9579 22.9803 88.6512 23.4417 89.6489 23.1278C90.6005 22.8285 90.8765 22.0437 90.4769 20.7735C90.0984 19.5704 89.4291 19.1199 88.4692 19.4219Z" fill="white"/>
<path d="M101.999 21.5391L99.9677 21.9688L99.1915 18.2992C98.9751 17.276 98.5014 16.8416 97.7705 16.9962C97.418 17.0708 97.1564 17.2676 96.9858 17.5867C96.8153 17.9057 96.7741 18.2738 96.8623 18.6908L97.6589 22.4571L95.621 22.8882L94.2242 16.2843L96.2621 15.8532L96.4831 16.898L96.5089 16.8925C96.8246 15.9858 97.4469 15.4342 98.3755 15.2378C99.8373 14.9286 100.76 15.6811 101.144 17.4955L101.999 21.5391Z" fill="white"/>
<path d="M110.101 20.5011L108.143 20.7321L108.03 19.7698L108.004 19.7729C107.643 20.5765 107.021 21.0304 106.14 21.1344C105.49 21.2111 104.955 21.0883 104.537 20.766C104.122 20.4388 103.878 19.9675 103.806 19.3522C103.652 18.0516 104.334 17.2101 105.851 16.8276L107.642 16.3706C107.556 15.6374 107.115 15.3177 106.321 15.4114C105.522 15.5056 104.791 15.8331 104.127 16.3938L103.943 14.8357C104.214 14.6533 104.591 14.4761 105.075 14.3039C105.564 14.1312 106.013 14.0207 106.423 13.9723C108.335 13.7467 109.403 14.5876 109.628 16.4948L110.101 20.5011ZM107.835 18.0072L107.782 17.5555L106.583 17.8563C105.921 18.0229 105.621 18.3659 105.682 18.8852C105.71 19.1209 105.813 19.3056 105.993 19.4393C106.176 19.5681 106.408 19.616 106.687 19.583C107.075 19.5372 107.376 19.3668 107.589 19.0717C107.802 18.7723 107.884 18.4175 107.835 18.0072Z" fill="white"/>
<path d="M114.658 20.2639L112.577 20.3635L112.099 10.3818L114.18 10.2822L114.658 20.2639Z" fill="white"/>
<path d="M130.647 20.9467L128.52 20.7576L128.86 16.9231L124.96 16.5764L124.619 20.4109L122.499 20.2224L123.336 10.8068L125.456 10.9954L125.123 14.7511L129.023 15.0978L129.357 11.3421L131.484 11.5312L130.647 20.9467Z" fill="white"/>
<path d="M135.772 13.9273C135.425 13.8663 135.16 13.7147 134.975 13.4724C134.791 13.2258 134.725 12.9532 134.778 12.6546C134.832 12.3473 134.986 12.1157 135.241 11.9598C135.496 11.8039 135.797 11.7565 136.143 11.8174C136.494 11.8792 136.76 12.0265 136.942 12.2593C137.129 12.493 137.195 12.7634 137.141 13.0707C137.086 13.3823 136.931 13.6182 136.675 13.7784C136.423 13.9394 136.122 13.989 135.772 13.9273ZM135.429 21.805L133.377 21.4438L134.548 14.7961L136.599 15.1573L135.429 21.805Z" fill="white"/>
<path d="M144.873 23.2191C144.564 24.4328 143.974 25.2824 143.102 25.7679C142.229 26.2577 141.126 26.3329 139.793 25.9936C138.912 25.7692 138.245 25.4657 137.794 25.0833L138.227 23.3841C138.8 23.9472 139.429 24.316 140.115 24.4905C140.796 24.664 141.37 24.6174 141.837 24.3508C142.303 24.0885 142.614 23.6486 142.772 23.031L142.903 22.5136L142.878 22.5071C142.231 23.1225 141.459 23.3159 140.56 23.0871C139.726 22.8746 139.138 22.4122 138.798 21.6998C138.458 20.9875 138.414 20.1373 138.665 19.1492C138.947 18.042 139.443 17.2319 140.154 16.7191C140.865 16.2063 141.666 16.0632 142.556 16.2897C143.352 16.4925 143.871 16.9509 144.11 17.6649L144.136 17.6714L144.33 16.9113L146.348 17.4251L144.873 23.2191ZM143.49 20.3162L143.622 19.7988C143.727 19.3857 143.693 19.0029 143.519 18.6504C143.352 18.2948 143.072 18.0671 142.68 17.9674C142.233 17.8535 141.837 17.9387 141.493 18.2229C141.148 18.507 140.895 18.9664 140.734 19.601C140.595 20.1461 140.606 20.6092 140.768 20.9904C140.93 21.3674 141.222 21.6095 141.644 21.7168C142.061 21.8231 142.438 21.749 142.775 21.4946C143.117 21.2371 143.356 20.8443 143.49 20.3162Z" fill="white"/>
<path d="M153.105 26.8923L151.151 26.1889L152.451 22.5793C152.786 21.649 152.614 21.0618 151.936 20.8176C151.589 20.6926 151.261 20.7216 150.952 20.9046C150.643 21.0877 150.417 21.3798 150.272 21.7808L148.968 25.4028L147.008 24.6971L150.394 15.2949L152.354 16.0006L150.915 19.9946L150.94 20.0036C151.683 19.4444 152.466 19.313 153.289 19.6093C154.728 20.1274 155.135 21.2547 154.509 22.9913L153.105 26.8923Z" fill="white"/>
<path d="M159.789 29.4824L160.782 27.6214C160.969 28.0844 161.221 28.4931 161.54 28.8476C161.861 29.1982 162.223 29.4811 162.627 29.6962C162.863 29.8224 163.08 29.9107 163.277 29.9612C163.478 30.0137 163.657 30.0342 163.812 30.0226C163.974 30.0092 164.111 29.9676 164.223 29.8978C164.337 29.8242 164.426 29.7272 164.49 29.607C164.577 29.4442 164.608 29.274 164.583 29.0964C164.558 28.9188 164.493 28.7323 164.388 28.5368C164.287 28.3434 164.153 28.1374 163.986 27.9187C163.819 27.6999 163.635 27.47 163.435 27.2287C162.929 26.6098 162.619 26.0186 162.506 25.4554C162.397 24.8941 162.491 24.3363 162.786 23.7819C163.018 23.3476 163.304 23.022 163.644 22.8049C163.986 22.584 164.36 22.4523 164.766 22.41C165.176 22.3698 165.604 22.4086 166.049 22.5266C166.496 22.6407 166.941 22.8157 167.383 23.0515C167.817 23.2832 168.186 23.5152 168.491 23.7474C168.801 23.9778 169.069 24.2227 169.294 24.4823L168.366 26.2212C168.278 26.0498 168.171 25.8828 168.043 25.7202C167.92 25.5596 167.783 25.4095 167.633 25.2699C167.486 25.1264 167.331 24.9965 167.169 24.8801C167.011 24.7658 166.854 24.6673 166.699 24.5845C166.486 24.4708 166.281 24.3886 166.083 24.3382C165.888 24.2839 165.711 24.2615 165.551 24.271C165.392 24.2805 165.251 24.3201 165.129 24.3896C165.01 24.4552 164.916 24.552 164.847 24.6799C164.773 24.8195 164.743 24.9652 164.756 25.1169C164.772 25.2648 164.821 25.4253 164.903 25.5985C164.987 25.7679 165.1 25.9527 165.242 26.1531C165.386 26.3496 165.553 26.5634 165.744 26.7945C166.003 27.112 166.222 27.4206 166.401 27.7202C166.585 28.0181 166.72 28.3165 166.804 28.6156C166.889 28.9147 166.913 29.2191 166.878 29.5288C166.844 29.8346 166.737 30.1562 166.557 30.4935C166.309 30.9587 166.011 31.3027 165.663 31.5255C165.321 31.7464 164.946 31.8751 164.538 31.9115C164.132 31.944 163.705 31.8953 163.256 31.7654C162.811 31.6376 162.366 31.4548 161.92 31.2168C161.462 30.9727 161.047 30.7012 160.673 30.4023C160.304 30.1055 160.009 29.7988 159.789 29.4824Z" fill="white"/>
<path d="M171.731 36.6488C171.189 36.6213 170.545 36.3658 169.801 35.8825C168.931 35.3177 168.398 34.5971 168.202 33.7207C168.006 32.8443 168.178 31.9895 168.719 31.1565C169.344 30.1945 170.123 29.6237 171.057 29.4441C171.997 29.2632 172.95 29.4862 173.915 30.1132C174.582 30.5463 175.008 30.9482 175.192 31.319L174.23 32.8007C174.042 32.291 173.723 31.8903 173.273 31.5983C172.772 31.2729 172.278 31.1619 171.792 31.2653C171.312 31.3675 170.904 31.6766 170.569 32.1926C170.244 32.6939 170.128 33.1792 170.221 33.6486C170.317 34.1142 170.61 34.5062 171.1 34.8244C171.535 35.1068 172.05 35.2468 172.643 35.2445L171.731 36.6488Z" fill="white"/>
<path d="M178.672 42.2333L177.037 40.9534L179.402 37.9324C180.011 37.1538 180.032 36.5424 179.465 36.0982C179.174 35.8707 178.853 35.7955 178.503 35.8726C178.152 35.9498 177.845 36.1562 177.583 36.4918L175.21 39.5232L173.57 38.2393L179.729 30.3702L181.369 31.6541L178.753 34.9969L178.774 35.0132C179.654 34.7149 180.439 34.8353 181.128 35.3743C182.332 36.3169 182.365 37.515 181.228 38.9683L178.672 42.2333Z" fill="white"/>
<path d="M182.833 46.2616C182.018 45.4861 181.593 44.6481 181.558 43.7475C181.53 42.8468 181.888 42.0049 182.633 41.2217C183.402 40.413 184.246 40.0112 185.163 40.0164C186.083 40.0183 186.955 40.4116 187.78 41.1961C188.592 41.9685 189.01 42.8036 189.036 43.7012C189.064 44.5957 188.721 45.4187 188.006 46.1701C187.234 46.9819 186.385 47.3963 185.459 47.4131C184.536 47.433 183.661 47.0491 182.833 46.2616ZM186.652 42.3245C186.295 41.9853 185.901 41.8443 185.471 41.9017C185.04 41.959 184.611 42.2122 184.184 42.6611C183.291 43.6003 183.223 44.4304 183.98 45.1513C184.703 45.8389 185.523 45.7003 186.441 44.7357C187.311 43.8219 187.381 43.0182 186.652 42.3245Z" fill="white"/>
<path d="M189.067 52.8014C188.33 51.9511 187.988 51.0761 188.04 50.1764C188.098 49.2771 188.535 48.4735 189.352 47.7656C190.196 47.0347 191.074 46.7159 191.986 46.8093C192.902 46.8997 193.733 47.3751 194.478 48.2353C195.212 49.0823 195.548 49.9537 195.487 50.8497C195.429 51.7428 195.008 52.5289 194.225 53.208C193.378 53.9418 192.493 54.2725 191.569 54.2002C190.649 54.1312 189.815 53.6649 189.067 52.8014ZM193.246 49.25C192.924 48.878 192.546 48.6998 192.112 48.7155C191.677 48.7311 191.226 48.9418 190.758 49.3476C189.778 50.1965 189.631 51.0161 190.315 51.8066C190.969 52.5606 191.798 52.5016 192.805 51.6297C193.758 50.8038 193.905 50.0106 193.246 49.25Z" fill="white"/>
<path d="M194.153 58.94L192.911 57.268L200.933 51.3082L202.175 52.9803L194.153 58.94Z" fill="white"/>
<path d="M198.324 62.076L195.01 63.1159L194.112 61.7656L197.262 60.4787L198.324 62.076Z" fill="white"/>
<path d="M204.774 70.0754L201.86 71.5279L200.91 69.6223L209.37 65.4061L210.858 68.3914C211.92 70.5232 211.553 72.0369 209.755 72.9327C208.906 73.3561 208.065 73.3923 207.232 73.0414C206.405 72.6924 205.737 72.0066 205.227 70.984L204.774 70.0754ZM208.857 68.0409L206.22 69.3551L206.593 70.1044C207.099 71.1191 207.796 71.405 208.685 70.9621C209.554 70.5289 209.736 69.8049 209.23 68.7901L208.857 68.0409Z" fill="white"/>
<path d="M206.767 82.8554L206.052 81.0188L206.955 80.6672L206.946 80.6426C206.077 80.4951 205.482 80.0077 205.16 79.1805C204.922 78.5704 204.907 78.0222 205.113 77.5361C205.326 77.0525 205.721 76.6983 206.298 76.4734C207.519 75.9983 208.504 76.4468 209.256 77.819L210.148 79.4381C210.836 79.1702 211.035 78.6636 210.745 77.9183C210.453 77.169 209.952 76.5433 209.243 76.0414L210.705 75.4722C210.949 75.6883 211.215 76.009 211.504 76.4343C211.794 76.8638 212.013 77.271 212.163 77.656C212.862 79.4496 212.316 80.6948 210.527 81.3916L206.767 82.8554ZM208.612 80.0361L209.036 79.871L208.444 78.7859C208.116 78.1872 207.709 77.9827 207.222 78.1724C207.001 78.2585 206.848 78.4052 206.763 78.6126C206.685 78.8224 206.697 79.0583 206.799 79.3204C206.94 79.6849 207.181 79.9331 207.52 80.0652C207.863 80.1957 208.227 80.186 208.612 80.0361Z" fill="white"/>
<path d="M208.884 86.9518L208.877 86.9264L208.123 87.1425L207.549 85.14L217.156 82.3882L217.73 84.3906L213.636 85.5632L213.643 85.5886C214.541 85.8663 215.121 86.4614 215.382 87.3739C215.622 88.2104 215.519 88.9369 215.074 89.5535C214.629 90.1701 213.908 90.6212 212.911 90.9068C211.829 91.2166 210.886 91.2012 210.079 90.8607C209.273 90.5202 208.744 89.9085 208.491 89.0255C208.262 88.2271 208.393 87.5358 208.884 86.9518ZM211.606 86.1106L210.94 86.3012C210.522 86.421 210.21 86.6406 210.004 86.9601C209.799 87.2796 209.75 87.6273 209.857 88.0033C209.988 88.4595 210.265 88.7621 210.687 88.9109C211.114 89.0627 211.651 89.0461 212.297 88.8609C212.834 88.7072 213.219 88.4712 213.452 88.153C213.691 87.8377 213.749 87.4667 213.627 87.04C213.512 86.6387 213.267 86.3479 212.89 86.1677C212.515 85.9917 212.087 85.9727 211.606 86.1106Z" fill="white"/>
<path d="M211.153 100.54L210.779 98.4977L214.468 97.8215C215.497 97.633 215.944 97.1713 215.809 96.4364C215.744 96.082 215.554 95.8152 215.24 95.636C214.926 95.4568 214.559 95.4056 214.14 95.4825L210.353 96.1765L209.978 94.1276L216.617 92.9107L216.992 94.9596L215.942 95.1521L215.947 95.1781C216.845 95.5183 217.379 96.1553 217.55 97.089C217.82 98.5587 217.042 99.4606 215.218 99.795L211.153 100.54Z" fill="white"/>
<path d="M211.969 108.667L211.791 106.704L212.756 106.616L212.754 106.59C211.96 106.207 211.523 105.574 211.443 104.69C211.384 104.038 211.521 103.507 211.855 103.097C212.193 102.692 212.671 102.461 213.288 102.405C214.592 102.287 215.415 102.991 215.756 104.518L216.164 106.321C216.9 106.254 217.231 105.823 217.159 105.026C217.087 104.225 216.779 103.486 216.237 102.807L217.799 102.665C217.974 102.941 218.141 103.323 218.3 103.811C218.459 104.304 218.558 104.756 218.595 105.168C218.769 107.085 217.899 108.13 215.986 108.303L211.969 108.667ZM214.523 106.47L214.976 106.429L214.708 105.222C214.56 104.556 214.225 104.246 213.704 104.293C213.468 104.315 213.28 104.413 213.142 104.589C213.008 104.769 212.954 104.999 212.979 105.279C213.014 105.669 213.177 105.974 213.466 106.195C213.759 106.415 214.112 106.507 214.523 106.47Z" fill="white"/>
<circle cx="19.9342" cy="120.348" r="4.275" fill="url(#paint80_linear_5001_237)"/>
<circle cx="51.5431" cy="188.489" r="4.275" fill="url(#paint81_linear_5001_237)"/>
<circle cx="186.753" cy="184.934" r="4.275" fill="url(#paint82_linear_5001_237)"/>
<circle cx="215.289" cy="120.348" r="4.275" fill="url(#paint83_linear_5001_237)"/>
<path d="M61.3469 200.174L57.3629 197.635L61.5959 190.992L65.4271 193.433L64.6507 194.652L62.3159 193.164L61.3742 194.642L63.5469 196.026L62.7735 197.24L60.6008 195.855L59.6326 197.375L62.1203 198.96L61.3469 200.174Z" fill="white"/>
<path d="M66.1372 202.647L66.7819 201.397C66.9568 201.681 67.1503 201.925 67.3623 202.129C67.5776 202.335 67.7975 202.496 68.0221 202.612C68.2954 202.753 68.5296 202.826 68.7244 202.832C68.9225 202.839 69.061 202.766 69.1399 202.614C69.1902 202.516 69.1964 202.416 69.1584 202.314C69.1204 202.212 69.057 202.107 68.9682 202C68.8828 201.894 68.7834 201.787 68.6701 201.679C68.5568 201.571 68.4509 201.461 68.3524 201.348C68.1925 201.171 68.0579 201.001 67.9485 200.837C67.8441 200.672 67.7693 200.506 67.7239 200.338C67.6817 200.172 67.6716 200 67.6935 199.822C67.7186 199.645 67.7841 199.454 67.8899 199.249C68.0342 198.969 68.2187 198.76 68.4432 198.62C68.6709 198.482 68.9185 198.401 69.1857 198.379C69.4579 198.354 69.7393 198.38 70.0299 198.455C70.3254 198.53 70.6148 198.64 70.8979 198.786C71.1192 198.9 71.3346 199.034 71.5439 199.187C71.755 199.337 71.9544 199.502 72.1421 199.681L71.5277 200.872C71.3911 200.658 71.2249 200.465 71.0288 200.293C70.8377 200.121 70.6348 199.979 70.42 199.868C70.3191 199.816 70.218 199.776 70.1168 199.749C70.0206 199.72 69.929 199.706 69.8422 199.706C69.7571 199.703 69.6807 199.72 69.6131 199.755C69.5472 199.787 69.4966 199.837 69.4614 199.905C69.4143 199.996 69.4033 200.09 69.4284 200.185C69.4534 200.28 69.5005 200.377 69.5697 200.474C69.6406 200.568 69.7229 200.664 69.8167 200.762C69.9154 200.858 70.0116 200.955 70.1054 201.053C70.2735 201.231 70.4187 201.404 70.541 201.575C70.6634 201.745 70.7537 201.917 70.8122 202.092C70.8738 202.268 70.8961 202.448 70.8791 202.633C70.8653 202.819 70.8038 203.019 70.6947 203.23C70.5419 203.526 70.3459 203.747 70.1066 203.891C69.8722 204.034 69.6132 204.116 69.3295 204.139C69.0508 204.16 68.7564 204.128 68.4463 204.042C68.1378 203.961 67.8338 203.844 67.5344 203.689C66.9843 203.405 66.5186 203.058 66.1372 202.647Z" fill="white"/>
<path d="M76.593 207.749C76.3038 207.77 75.9229 207.676 75.4503 207.468C74.3307 206.976 74.0269 206.148 74.5387 204.985L75.5765 202.627L74.7419 202.259L75.2574 201.088L76.092 201.455L76.581 200.344L78.3639 200.589L77.6758 202.152L78.8322 202.661L78.3166 203.833L77.1602 203.324L76.2442 205.405C76.0082 205.942 76.103 206.303 76.5287 206.491C76.6963 206.564 76.8903 206.592 77.1108 206.573L76.593 207.749Z" fill="white"/>
<path d="M85.4989 211.023L83.9458 210.488L84.2085 209.725L84.1877 209.718C83.6261 210.191 82.9955 210.307 82.296 210.066C81.7801 209.889 81.4232 209.603 81.2255 209.21C81.0324 208.814 81.0198 208.372 81.1878 207.884C81.5428 206.852 82.3589 206.467 83.6361 206.728L85.1463 207.032C85.3464 206.451 85.1314 206.051 84.5011 205.835C83.8674 205.617 83.1999 205.598 82.4987 205.779L82.924 204.543C83.1931 204.504 83.5405 204.507 83.9662 204.553C84.3954 204.6 84.7728 204.679 85.0983 204.791C86.6151 205.313 87.1131 206.33 86.5925 207.844L85.4989 211.023ZM84.6995 208.331L84.8228 207.973L83.8138 207.765C83.2567 207.651 82.9072 207.8 82.7655 208.212C82.7011 208.399 82.7122 208.575 82.7986 208.74C82.8897 208.903 83.0461 209.023 83.2677 209.099C83.5759 209.205 83.8633 209.186 84.1299 209.041C84.3977 208.893 84.5876 208.657 84.6995 208.331Z" fill="white"/>
<path d="M91.0268 211.963L91.0054 211.958L90.8578 212.595L89.1668 212.203L91.0468 204.091L92.7378 204.483L91.9367 207.94L91.9581 207.945C92.5235 207.403 93.1915 207.221 93.9621 207.4C94.6685 207.563 95.1563 207.932 95.4256 208.506C95.6949 209.079 95.732 209.787 95.5369 210.629C95.3252 211.542 94.9324 212.224 94.3583 212.673C93.7842 213.123 93.1244 213.261 92.3787 213.089C91.7045 212.932 91.2538 212.557 91.0268 211.963ZM91.5144 209.64L91.3842 210.202C91.3023 210.556 91.3362 210.872 91.4858 211.151C91.6354 211.43 91.869 211.606 92.1865 211.68C92.5718 211.769 92.904 211.69 93.1831 211.442C93.4666 211.192 93.6716 210.794 93.7981 210.249C93.9031 209.796 93.8868 209.42 93.7493 209.121C93.6162 208.819 93.3694 208.627 93.0091 208.543C92.6702 208.465 92.359 208.526 92.0756 208.727C91.7957 208.929 91.6086 209.234 91.5144 209.64Z" fill="white"/>
<path d="M101.221 214.693L99.51 214.403L100.902 206.193L102.614 206.483L101.221 214.693Z" fill="white"/>
<path d="M107.067 209.07C106.776 209.04 106.546 208.929 106.378 208.739C106.21 208.545 106.139 208.322 106.165 208.071C106.192 207.812 106.307 207.61 106.509 207.466C106.712 207.321 106.959 207.264 107.251 207.294C107.546 207.324 107.776 207.431 107.941 207.614C108.11 207.797 108.181 208.018 108.154 208.276C108.127 208.539 108.012 208.744 107.809 208.892C107.609 209.041 107.362 209.1 107.067 209.07ZM107.25 215.638L105.523 215.46L106.101 209.865L107.828 210.043L107.25 215.638Z" fill="white"/>
<path d="M110.323 215.514L110.367 214.109C110.647 214.29 110.927 214.427 111.206 214.519C111.489 214.613 111.756 214.663 112.009 214.671C112.316 214.68 112.559 214.646 112.738 214.567C112.92 214.489 113.013 214.363 113.019 214.191C113.022 214.081 112.985 213.989 112.906 213.913C112.828 213.837 112.726 213.77 112.599 213.711C112.477 213.652 112.341 213.599 112.192 213.55C112.044 213.501 111.901 213.447 111.763 213.388C111.542 213.297 111.348 213.201 111.179 213.101C111.013 212.997 110.874 212.879 110.761 212.747C110.651 212.615 110.568 212.464 110.511 212.294C110.458 212.124 110.435 211.923 110.442 211.693C110.452 211.378 110.528 211.109 110.67 210.887C110.817 210.664 111.005 210.485 111.237 210.349C111.472 210.21 111.737 210.112 112.032 210.055C112.33 209.995 112.639 209.97 112.957 209.979C113.206 209.987 113.458 210.015 113.713 210.063C113.968 210.108 114.219 210.171 114.466 210.252L114.424 211.591C114.208 211.456 113.975 211.354 113.725 211.284C113.478 211.21 113.234 211.17 112.992 211.162C112.879 211.159 112.77 211.166 112.667 211.185C112.568 211.2 112.479 211.227 112.401 211.265C112.323 211.299 112.261 211.346 112.215 211.407C112.169 211.464 112.145 211.532 112.143 211.608C112.14 211.711 112.17 211.8 112.233 211.875C112.297 211.95 112.381 212.017 112.485 212.075C112.59 212.13 112.706 212.181 112.832 212.229C112.963 212.273 113.092 212.319 113.218 212.367C113.446 212.455 113.652 212.549 113.836 212.65C114.02 212.751 114.176 212.868 114.303 213C114.435 213.132 114.533 213.286 114.597 213.46C114.665 213.634 114.695 213.84 114.687 214.078C114.677 214.411 114.595 214.695 114.441 214.928C114.291 215.158 114.093 215.344 113.847 215.486C113.604 215.625 113.325 215.723 113.008 215.779C112.694 215.839 112.369 215.864 112.033 215.853C111.414 215.834 110.844 215.721 110.323 215.514Z" fill="white"/>
<path d="M123.406 215.543L121.676 215.605L121.562 212.41C121.532 211.587 121.217 211.186 120.617 211.207C120.31 211.218 120.065 211.342 119.883 211.58C119.701 211.817 119.616 212.113 119.629 212.468L119.744 215.674L118.009 215.737L117.711 207.414L119.446 207.352L119.572 210.887L119.594 210.887C119.996 210.224 120.56 209.879 121.289 209.853C122.562 209.807 123.227 210.553 123.282 212.09L123.406 215.543Z" fill="white"/>
<path d="M131.757 212.27L128.111 212.688C128.262 213.492 128.82 213.839 129.784 213.729C130.399 213.659 130.922 213.451 131.355 213.107L131.497 214.351C131.012 214.687 130.357 214.902 129.531 214.996C128.629 215.1 127.9 214.931 127.344 214.489C126.788 214.044 126.459 213.374 126.356 212.479C126.25 211.551 126.435 210.786 126.912 210.182C127.388 209.578 128.019 209.231 128.805 209.141C129.62 209.048 130.277 209.218 130.777 209.651C131.279 210.084 131.578 210.715 131.673 211.544L131.757 212.27ZM130.036 211.394C129.945 210.594 129.575 210.231 128.927 210.305C128.651 210.337 128.424 210.479 128.246 210.731C128.072 210.983 127.983 211.283 127.979 211.63L130.036 211.394Z" fill="white"/>
<path d="M140.634 212.818L138.92 213.091L138.798 212.326L138.776 212.329C138.481 212.992 137.956 213.384 137.2 213.504C136.506 213.615 135.908 213.46 135.407 213.039C134.906 212.615 134.585 211.963 134.445 211.084C134.298 210.166 134.414 209.393 134.792 208.765C135.171 208.137 135.738 207.763 136.494 207.643C137.21 207.528 137.75 207.706 138.114 208.174L138.135 208.171L137.609 204.867L139.323 204.594L140.634 212.818ZM138.522 210.384L138.455 209.967C138.397 209.605 138.245 209.321 137.997 209.116C137.749 208.911 137.457 208.835 137.121 208.889C136.741 208.949 136.468 209.147 136.303 209.481C136.137 209.811 136.095 210.237 136.178 210.758C136.256 211.246 136.419 211.606 136.667 211.837C136.915 212.068 137.222 212.154 137.587 212.096C137.935 212.041 138.195 211.857 138.367 211.544C138.543 211.23 138.595 210.844 138.522 210.384Z" fill="white"/>
<path d="M146.067 207.116C145.787 207.173 145.537 207.137 145.315 207.007C145.093 206.873 144.956 206.681 144.905 206.43C144.851 206.172 144.903 205.94 145.059 205.736C145.219 205.531 145.442 205.399 145.729 205.34C146.019 205.28 146.274 205.316 146.491 205.447C146.712 205.573 146.848 205.764 146.901 206.018C146.955 206.28 146.904 206.513 146.748 206.717C146.595 206.921 146.368 207.054 146.067 207.116ZM146.879 211.054C146.599 211.112 146.348 211.074 146.126 210.94C145.904 210.806 145.767 210.614 145.715 210.363C145.662 210.104 145.714 209.873 145.87 209.669C146.029 209.464 146.253 209.332 146.54 209.273C146.83 209.213 147.084 209.249 147.302 209.379C147.522 209.506 147.659 209.697 147.711 209.951C147.765 210.213 147.715 210.448 147.559 210.656C147.407 210.859 147.18 210.992 146.879 211.054Z" fill="white"/>
<path d="M154.382 200.196L157.194 207.742L155.573 208.346L153.443 202.632C153.384 202.744 153.305 202.86 153.209 202.978C153.114 203.091 153.009 203.202 152.894 203.312C152.777 203.418 152.652 203.519 152.52 203.615C152.387 203.708 152.251 203.79 152.113 203.861L151.603 202.491C151.979 202.211 152.318 201.904 152.621 201.573C152.923 201.241 153.182 200.904 153.399 200.562L154.382 200.196Z" fill="white"/>
<path d="M164.727 200.115C164.967 200.772 165.11 201.386 165.155 201.958C165.199 202.527 165.147 203.041 165 203.501C164.855 203.959 164.618 204.357 164.29 204.696C163.96 205.031 163.542 205.291 163.037 205.475C162.431 205.696 161.875 205.791 161.368 205.758L160.878 204.416C161.359 204.529 161.874 204.485 162.42 204.285C162.981 204.08 163.35 203.729 163.527 203.232C163.704 202.734 163.662 202.124 163.402 201.4L163.367 201.401C163.217 202.006 162.809 202.43 162.142 202.673C161.839 202.784 161.538 202.83 161.238 202.81C160.942 202.79 160.663 202.714 160.401 202.584C160.141 202.449 159.907 202.262 159.699 202.022C159.494 201.781 159.33 201.494 159.208 201.16C159.066 200.771 159.001 200.394 159.011 200.027C159.021 199.661 159.098 199.321 159.241 199.008C159.387 198.693 159.598 198.415 159.872 198.175C160.146 197.931 160.477 197.738 160.865 197.596C161.268 197.448 161.658 197.396 162.036 197.437C162.412 197.475 162.766 197.601 163.098 197.815C163.433 198.028 163.737 198.328 164.011 198.715C164.289 199.101 164.528 199.568 164.727 200.115ZM162.765 199.849C162.696 199.66 162.607 199.492 162.498 199.344C162.389 199.193 162.269 199.073 162.139 198.984C162.009 198.895 161.869 198.839 161.72 198.815C161.57 198.788 161.421 198.802 161.273 198.856C161.132 198.907 161.013 198.986 160.915 199.092C160.821 199.197 160.751 199.32 160.705 199.461C160.658 199.599 160.638 199.753 160.645 199.922C160.652 200.091 160.688 200.263 160.752 200.438C160.822 200.631 160.909 200.794 161.013 200.928C161.115 201.058 161.228 201.159 161.351 201.231C161.479 201.302 161.614 201.342 161.758 201.352C161.901 201.358 162.048 201.333 162.199 201.278C162.344 201.225 162.464 201.15 162.561 201.052C162.657 200.951 162.728 200.837 162.775 200.711C162.826 200.583 162.85 200.446 162.847 200.299C162.848 200.15 162.82 200 162.765 199.849Z" fill="white"/>
<path d="M172.035 195.954C172.333 196.587 172.531 197.186 172.627 197.752C172.723 198.314 172.717 198.831 172.611 199.302C172.509 199.771 172.309 200.189 172.012 200.556C171.714 200.919 171.321 201.216 170.834 201.445C170.251 201.72 169.706 201.864 169.198 201.877L168.589 200.585C169.079 200.654 169.587 200.564 170.113 200.316C170.653 200.061 170.989 199.678 171.12 199.167C171.252 198.655 171.155 198.051 170.831 197.354L170.796 197.358C170.702 197.973 170.333 198.433 169.69 198.736C169.399 198.873 169.103 198.946 168.803 198.953C168.507 198.96 168.222 198.91 167.949 198.804C167.678 198.692 167.428 198.527 167.199 198.307C166.973 198.086 166.784 197.814 166.633 197.493C166.456 197.119 166.357 196.749 166.334 196.383C166.311 196.017 166.357 195.671 166.471 195.346C166.588 195.02 166.773 194.724 167.025 194.46C167.275 194.192 167.587 193.97 167.962 193.793C168.349 193.611 168.733 193.523 169.113 193.53C169.491 193.534 169.855 193.627 170.205 193.811C170.558 193.993 170.888 194.264 171.196 194.625C171.507 194.984 171.787 195.427 172.035 195.954ZM170.056 195.867C169.971 195.684 169.867 195.525 169.746 195.388C169.623 195.247 169.493 195.138 169.355 195.062C169.218 194.985 169.074 194.941 168.923 194.931C168.771 194.918 168.624 194.945 168.481 195.012C168.346 195.076 168.234 195.165 168.146 195.279C168.061 195.392 168.003 195.521 167.97 195.666C167.936 195.808 167.93 195.962 167.952 196.13C167.974 196.298 168.025 196.466 168.105 196.635C168.192 196.82 168.294 196.975 168.409 197.099C168.522 197.22 168.644 197.31 168.773 197.37C168.906 197.429 169.045 197.457 169.189 197.454C169.332 197.447 169.476 197.409 169.622 197.341C169.761 197.275 169.874 197.189 169.962 197.083C170.048 196.974 170.109 196.854 170.145 196.724C170.184 196.592 170.195 196.453 170.179 196.307C170.166 196.159 170.125 196.012 170.056 195.867Z" fill="white"/>
<path d="M179.303 195.962C177.679 196.899 176.209 196.228 174.892 193.947C174.209 192.764 173.908 191.737 173.989 190.866C174.071 189.99 174.529 189.311 175.363 188.83C176.948 187.914 178.411 188.616 179.749 190.934C180.416 192.088 180.709 193.099 180.63 193.965C180.554 194.829 180.111 195.495 179.303 195.962ZM175.958 190.015C175.308 190.39 175.454 191.394 176.397 193.028C177.285 194.566 178.048 195.151 178.686 194.783C179.307 194.424 179.16 193.452 178.245 191.866C177.329 190.28 176.567 189.663 175.958 190.015Z" fill="white"/>
</g>
<defs>
<filter id="filter0_d_5001_237" x="0" y="0" width="236" height="236" filterUnits="userSpaceOnUse" color-interpolation-filters="sRGB">
<feFlood flood-opacity="0" result="BackgroundImageFix"/>
<feColorMatrix in="SourceAlpha" type="matrix" values="0 0 0 0 0 0 0 0 0 0 0 0 0 0 0 0 0 0 127 0" result="hardAlpha"/>
<feOffset dy="4"/>
<feGaussianBlur stdDeviation="2"/>
<feComposite in2="hardAlpha" operator="out"/>
<feColorMatrix type="matrix" values="0 0 0 0 0 0 0 0 0 0 0 0 0 0 0 0 0 0 0.25 0"/>
<feBlend mode="normal" in2="BackgroundImageFix" result="effect1_dropShadow_5001_237"/>
<feBlend mode="normal" in="SourceGraphic" in2="effect1_dropShadow_5001_237" result="shape"/>
</filter>
<linearGradient id="paint0_linear_5001_237" x1="65.5471" y1="80.8813" x2="60.9255" y2="80.8813" gradientUnits="userSpaceOnUse">
<stop stop-color="#CE8522"/>
<stop offset="1" stop-color="#F0C456"/>
</linearGradient>
<linearGradient id="paint1_linear_5001_237" x1="70.5188" y1="89.1673" x2="63.8157" y2="89.1673" gradientUnits="userSpaceOnUse">
<stop stop-color="#CE8522"/>
<stop offset="1" stop-color="#F0C456"/>
</linearGradient>
<linearGradient id="paint2_linear_5001_237" x1="62.3447" y1="89.0426" x2="55.8894" y2="89.0426" gradientUnits="userSpaceOnUse">
<stop stop-color="#F0C456"/>
<stop offset="1" stop-color="#CE8522"/>
</linearGradient>
<linearGradient id="paint3_linear_5001_237" x1="70.4568" y1="97.8185" x2="64.2462" y2="97.8185" gradientUnits="userSpaceOnUse">
<stop stop-color="#CE8522"/>
<stop offset="1" stop-color="#F0C456"/>
</linearGradient>
<linearGradient id="paint4_linear_5001_237" x1="62.6375" y1="98.1508" x2="55.5716" y2="98.1508" gradientUnits="userSpaceOnUse">
<stop stop-color="#F0C456"/>
<stop offset="1" stop-color="#CE8522"/>
</linearGradient>
<linearGradient id="paint5_linear_5001_237" x1="71.2163" y1="105.497" x2="65.4743" y2="105.497" gradientUnits="userSpaceOnUse">
<stop stop-color="#CE8522"/>
<stop offset="1" stop-color="#F0C456"/>
</linearGradient>
<linearGradient id="paint6_linear_5001_237" x1="64.1797" y1="107.275" x2="56.4423" y2="107.275" gradientUnits="userSpaceOnUse">
<stop stop-color="#F0C456"/>
<stop offset="1" stop-color="#CE8522"/>
</linearGradient>
<linearGradient id="paint7_linear_5001_237" x1="72.797" y1="113.039" x2="67.4007" y2="113.039" gradientUnits="userSpaceOnUse">
<stop stop-color="#CE8522"/>
<stop offset="1" stop-color="#F0C456"/>
</linearGradient>
<linearGradient id="paint8_linear_5001_237" x1="66.4661" y1="116.165" x2="58.1463" y2="116.165" gradientUnits="userSpaceOnUse">
<stop stop-color="#F0C456"/>
<stop offset="1" stop-color="#CE8522"/>
</linearGradient>
<linearGradient id="paint9_linear_5001_237" x1="75.1761" y1="120.348" x2="70.064" y2="120.348" gradientUnits="userSpaceOnUse">
<stop stop-color="#CE8522"/>
<stop offset="1" stop-color="#F0C456"/>
</linearGradient>
<linearGradient id="paint10_linear_5001_237" x1="69.5894" y1="124.732" x2="60.6872" y2="124.732" gradientUnits="userSpaceOnUse">
<stop stop-color="#F0C456"/>
<stop offset="1" stop-color="#CE8522"/>
</linearGradient>
<linearGradient id="paint11_linear_5001_237" x1="78.383" y1="127.424" x2="73.5117" y2="127.424" gradientUnits="userSpaceOnUse">
<stop stop-color="#CE8522"/>
<stop offset="1" stop-color="#F0C456"/>
</linearGradient>
<linearGradient id="paint12_linear_5001_237" x1="73.4571" y1="132.943" x2="64.1389" y2="132.943" gradientUnits="userSpaceOnUse">
<stop stop-color="#F0C456"/>
<stop offset="1" stop-color="#CE8522"/>
</linearGradient>
<linearGradient id="paint13_linear_5001_237" x1="82.3465" y1="134.174" x2="77.5517" y2="134.174" gradientUnits="userSpaceOnUse">
<stop stop-color="#CE8522"/>
<stop offset="1" stop-color="#F0C456"/>
</linearGradient>
<linearGradient id="paint14_linear_5001_237" x1="78.1148" y1="140.784" x2="68.4638" y2="140.784" gradientUnits="userSpaceOnUse">
<stop stop-color="#F0C456"/>
<stop offset="1" stop-color="#CE8522"/>
</linearGradient>
<linearGradient id="paint15_linear_5001_237" x1="87.0226" y1="140.598" x2="82.289" y2="140.598" gradientUnits="userSpaceOnUse">
<stop stop-color="#CE8522"/>
<stop offset="1" stop-color="#F0C456"/>
</linearGradient>
<linearGradient id="paint16_linear_5001_237" x1="83.4712" y1="148.125" x2="73.4873" y2="148.125" gradientUnits="userSpaceOnUse">
<stop stop-color="#F0C456"/>
<stop offset="1" stop-color="#CE8522"/>
</linearGradient>
<linearGradient id="paint17_linear_5001_237" x1="92.5077" y1="146.603" x2="87.6743" y2="146.603" gradientUnits="userSpaceOnUse">
<stop stop-color="#CE8522"/>
<stop offset="1" stop-color="#F0C456"/>
</linearGradient>
<linearGradient id="paint18_linear_5001_237" x1="89.5701" y1="154.957" x2="79.3782" y2="154.957" gradientUnits="userSpaceOnUse">
<stop stop-color="#F0C456"/>
<stop offset="1" stop-color="#CE8522"/>
</linearGradient>
<linearGradient id="paint19_linear_5001_237" x1="169.843" y1="80.6113" x2="175.159" y2="80.9656" gradientUnits="userSpaceOnUse">
<stop stop-color="#CE8522"/>
<stop offset="1" stop-color="#F0C456"/>
</linearGradient>
<linearGradient id="paint20_linear_5001_237" x1="164.84" y1="89.8119" x2="172.448" y2="90.9062" gradientUnits="userSpaceOnUse">
<stop stop-color="#CE8522"/>
<stop offset="1" stop-color="#F0C456"/>
</linearGradient>
<linearGradient id="paint21_linear_5001_237" x1="173.347" y1="88.8364" x2="180.716" y2="89.7377" gradientUnits="userSpaceOnUse">
<stop stop-color="#F0C456"/>
<stop offset="1" stop-color="#CE8522"/>
</linearGradient>
<linearGradient id="paint22_linear_5001_237" x1="164.909" y1="97.6258" x2="171.992" y2="98.5174" gradientUnits="userSpaceOnUse">
<stop stop-color="#CE8522"/>
<stop offset="1" stop-color="#F0C456"/>
</linearGradient>
<linearGradient id="paint23_linear_5001_237" x1="172.762" y1="98.0369" x2="180.771" y2="99.1812" gradientUnits="userSpaceOnUse">
<stop stop-color="#F0C456"/>
<stop offset="1" stop-color="#CE8522"/>
</linearGradient>
<linearGradient id="paint24_linear_5001_237" x1="164.157" y1="105.29" x2="170.731" y2="106.007" gradientUnits="userSpaceOnUse">
<stop stop-color="#CE8522"/>
<stop offset="1" stop-color="#F0C456"/>
</linearGradient>
<linearGradient id="paint25_linear_5001_237" x1="171.209" y1="107.142" x2="179.926" y2="108.609" gradientUnits="userSpaceOnUse">
<stop stop-color="#F0C456"/>
<stop offset="1" stop-color="#CE8522"/>
</linearGradient>
<linearGradient id="paint26_linear_5001_237" x1="162.57" y1="112.822" x2="168.712" y2="113.413" gradientUnits="userSpaceOnUse">
<stop stop-color="#CE8522"/>
<stop offset="1" stop-color="#F0C456"/>
</linearGradient>
<linearGradient id="paint27_linear_5001_237" x1="168.867" y1="115.997" x2="178.157" y2="117.796" gradientUnits="userSpaceOnUse">
<stop stop-color="#F0C456"/>
<stop offset="1" stop-color="#CE8522"/>
</linearGradient>
<linearGradient id="paint28_linear_5001_237" x1="160.195" y1="120.074" x2="166.05" y2="120.586" gradientUnits="userSpaceOnUse">
<stop stop-color="#CE8522"/>
<stop offset="1" stop-color="#F0C456"/>
</linearGradient>
<linearGradient id="paint29_linear_5001_237" x1="165.688" y1="124.574" x2="175.526" y2="126.736" gradientUnits="userSpaceOnUse">
<stop stop-color="#F0C456"/>
<stop offset="1" stop-color="#CE8522"/>
</linearGradient>
<linearGradient id="paint30_linear_5001_237" x1="157.021" y1="127.143" x2="162.657" y2="127.601" gradientUnits="userSpaceOnUse">
<stop stop-color="#CE8522"/>
<stop offset="1" stop-color="#F0C456"/>
</linearGradient>
<linearGradient id="paint31_linear_5001_237" x1="161.813" y1="132.829" x2="171.997" y2="135.324" gradientUnits="userSpaceOnUse">
<stop stop-color="#F0C456"/>
<stop offset="1" stop-color="#CE8522"/>
</linearGradient>
<linearGradient id="paint32_linear_5001_237" x1="153.041" y1="133.98" x2="158.542" y2="134.407" gradientUnits="userSpaceOnUse">
<stop stop-color="#CE8522"/>
<stop offset="1" stop-color="#F0C456"/>
</linearGradient>
<linearGradient id="paint33_linear_5001_237" x1="157.243" y1="140.643" x2="167.679" y2="143.431" gradientUnits="userSpaceOnUse">
<stop stop-color="#F0C456"/>
<stop offset="1" stop-color="#CE8522"/>
</linearGradient>
<linearGradient id="paint34_linear_5001_237" x1="148.328" y1="140.354" x2="153.773" y2="140.765" gradientUnits="userSpaceOnUse">
<stop stop-color="#CE8522"/>
<stop offset="1" stop-color="#F0C456"/>
</linearGradient>
<linearGradient id="paint35_linear_5001_237" x1="151.79" y1="147.989" x2="162.476" y2="151.056" gradientUnits="userSpaceOnUse">
<stop stop-color="#F0C456"/>
<stop offset="1" stop-color="#CE8522"/>
</linearGradient>
<linearGradient id="paint36_linear_5001_237" x1="142.872" y1="146.357" x2="148.446" y2="146.786" gradientUnits="userSpaceOnUse">
<stop stop-color="#CE8522"/>
<stop offset="1" stop-color="#F0C456"/>
</linearGradient>
<linearGradient id="paint37_linear_5001_237" x1="145.734" y1="154.825" x2="156.547" y2="158.105" gradientUnits="userSpaceOnUse">
<stop stop-color="#F0C456"/>
<stop offset="1" stop-color="#CE8522"/>
</linearGradient>
<linearGradient id="paint38_linear_5001_237" x1="143.831" y1="101.547" x2="97.8901" y2="101.547" gradientUnits="userSpaceOnUse">
<stop stop-color="#CE8522"/>
<stop offset="1" stop-color="#F0C456"/>
</linearGradient>
<linearGradient id="paint39_linear_5001_237" x1="97.691" y1="111.355" x2="117.732" y2="111.355" gradientUnits="userSpaceOnUse">
<stop stop-color="white"/>
<stop offset="1" stop-color="#E3E3E3"/>
</linearGradient>
<linearGradient id="paint40_linear_5001_237" x1="102.657" y1="101.147" x2="116.05" y2="101.147" gradientUnits="userSpaceOnUse">
<stop stop-color="white"/>
<stop offset="1" stop-color="#E3E3E3"/>
</linearGradient>
<linearGradient id="paint41_linear_5001_237" x1="102.657" y1="103.316" x2="116.05" y2="103.316" gradientUnits="userSpaceOnUse">
<stop stop-color="white"/>
<stop offset="1" stop-color="#E3E3E3"/>
</linearGradient>
<linearGradient id="paint42_linear_5001_237" x1="102.657" y1="105.486" x2="116.05" y2="105.486" gradientUnits="userSpaceOnUse">
<stop stop-color="white"/>
<stop offset="1" stop-color="#E3E3E3"/>
</linearGradient>
<linearGradient id="paint43_linear_5001_237" x1="102.657" y1="107.655" x2="116.05" y2="107.655" gradientUnits="userSpaceOnUse">
<stop stop-color="white"/>
<stop offset="1" stop-color="#E3E3E3"/>
</linearGradient>
<linearGradient id="paint44_linear_5001_237" x1="102.065" y1="109.825" x2="116.05" y2="109.825" gradientUnits="userSpaceOnUse">
<stop stop-color="white"/>
<stop offset="1" stop-color="#E3E3E3"/>
</linearGradient>
<linearGradient id="paint45_linear_5001_237" x1="101.724" y1="111.994" x2="116.05" y2="111.994" gradientUnits="userSpaceOnUse">
<stop stop-color="white"/>
<stop offset="1" stop-color="#E3E3E3"/>
</linearGradient>
<linearGradient id="paint46_linear_5001_237" x1="101.412" y1="114.164" x2="116.05" y2="114.164" gradientUnits="userSpaceOnUse">
<stop stop-color="white"/>
<stop offset="1" stop-color="#E3E3E3"/>
</linearGradient>
<linearGradient id="paint47_linear_5001_237" x1="100.853" y1="116.333" x2="116.05" y2="116.333" gradientUnits="userSpaceOnUse">
<stop stop-color="white"/>
<stop offset="1" stop-color="#E3E3E3"/>
</linearGradient>
<linearGradient id="paint48_linear_5001_237" x1="100.361" y1="118.503" x2="116.05" y2="118.503" gradientUnits="userSpaceOnUse">
<stop stop-color="white"/>
<stop offset="1" stop-color="#E3E3E3"/>
</linearGradient>
<linearGradient id="paint49_linear_5001_237" x1="100.029" y1="120.934" x2="116.051" y2="120.934" gradientUnits="userSpaceOnUse">
<stop stop-color="white"/>
<stop offset="1" stop-color="#E3E3E3"/>
</linearGradient>
<linearGradient id="paint50_linear_5001_237" x1="117.731" y1="115.043" x2="141.062" y2="115.043" gradientUnits="userSpaceOnUse">
<stop stop-color="#D6D6D6"/>
<stop offset="1" stop-color="#A6A1A0"/>
</linearGradient>
<linearGradient id="paint51_linear_5001_237" x1="117.731" y1="111.355" x2="137.772" y2="111.355" gradientUnits="userSpaceOnUse">
<stop stop-color="white"/>
<stop offset="1" stop-color="#E3E3E3"/>
</linearGradient>
<linearGradient id="paint52_linear_5001_237" x1="119.412" y1="101.147" x2="132.805" y2="101.147" gradientUnits="userSpaceOnUse">
<stop stop-color="white"/>
<stop offset="1" stop-color="#E3E3E3"/>
</linearGradient>
<linearGradient id="paint53_linear_5001_237" x1="119.412" y1="103.316" x2="132.805" y2="103.316" gradientUnits="userSpaceOnUse">
<stop stop-color="white"/>
<stop offset="1" stop-color="#E3E3E3"/>
</linearGradient>
<linearGradient id="paint54_linear_5001_237" x1="119.412" y1="105.486" x2="132.805" y2="105.486" gradientUnits="userSpaceOnUse">
<stop stop-color="white"/>
<stop offset="1" stop-color="#E3E3E3"/>
</linearGradient>
<linearGradient id="paint55_linear_5001_237" x1="119.412" y1="107.655" x2="132.805" y2="107.655" gradientUnits="userSpaceOnUse">
<stop stop-color="white"/>
<stop offset="1" stop-color="#E3E3E3"/>
</linearGradient>
<linearGradient id="paint56_linear_5001_237" x1="119.412" y1="109.825" x2="133.398" y2="109.825" gradientUnits="userSpaceOnUse">
<stop stop-color="white"/>
<stop offset="1" stop-color="#E3E3E3"/>
</linearGradient>
<linearGradient id="paint57_linear_5001_237" x1="119.412" y1="111.994" x2="133.738" y2="111.994" gradientUnits="userSpaceOnUse">
<stop stop-color="white"/>
<stop offset="1" stop-color="#E3E3E3"/>
</linearGradient>
<linearGradient id="paint58_linear_5001_237" x1="119.412" y1="114.164" x2="134.05" y2="114.164" gradientUnits="userSpaceOnUse">
<stop stop-color="white"/>
<stop offset="1" stop-color="#E3E3E3"/>
</linearGradient>
<linearGradient id="paint59_linear_5001_237" x1="119.412" y1="116.333" x2="134.609" y2="116.333" gradientUnits="userSpaceOnUse">
<stop stop-color="white"/>
<stop offset="1" stop-color="#E3E3E3"/>
</linearGradient>
<linearGradient id="paint60_linear_5001_237" x1="119.412" y1="118.503" x2="135.101" y2="118.503" gradientUnits="userSpaceOnUse">
<stop stop-color="white"/>
<stop offset="1" stop-color="#E3E3E3"/>
</linearGradient>
<linearGradient id="paint61_linear_5001_237" x1="119.411" y1="120.934" x2="135.434" y2="120.934" gradientUnits="userSpaceOnUse">
<stop stop-color="white"/>
<stop offset="1" stop-color="#E3E3E3"/>
</linearGradient>
<linearGradient id="paint62_linear_5001_237" x1="102.475" y1="65.7681" x2="102.475" y2="83.456" gradientUnits="userSpaceOnUse">
<stop stop-color="#002C53"/>
<stop offset="1" stop-color="#CE8522"/>
</linearGradient>
<linearGradient id="paint63_linear_5001_237" x1="104.931" y1="68.5143" x2="104.931" y2="88.2503" gradientUnits="userSpaceOnUse">
<stop stop-color="#002C53"/>
<stop offset="1" stop-color="#CE8522"/>
</linearGradient>
<linearGradient id="paint64_linear_5001_237" x1="97.9001" y1="76.2189" x2="109.407" y2="75.7732" gradientUnits="userSpaceOnUse">
<stop stop-color="white"/>
<stop offset="1" stop-color="white"/>
</linearGradient>
<linearGradient id="paint65_linear_5001_237" x1="117.731" y1="55.0514" x2="117.731" y2="155.931" gradientUnits="userSpaceOnUse">
<stop stop-color="#CE8522"/>
<stop offset="1" stop-color="#F0C456"/>
</linearGradient>
<linearGradient id="paint66_linear_5001_237" x1="95.0438" y1="102.416" x2="84.4351" y2="96.5587" gradientUnits="userSpaceOnUse">
<stop stop-color="#CE8522"/>
<stop offset="1" stop-color="#002C53"/>
</linearGradient>
<linearGradient id="paint67_linear_5001_237" x1="94.0077" y1="107.299" x2="84.9082" y2="102.508" gradientUnits="userSpaceOnUse">
<stop stop-color="#CE8522"/>
<stop offset="1" stop-color="#002C53"/>
</linearGradient>
<linearGradient id="paint68_linear_5001_237" x1="93.019" y1="112.135" x2="85.4284" y2="108.372" gradientUnits="userSpaceOnUse">
<stop stop-color="#CE8522"/>
<stop offset="1" stop-color="#002C53"/>
</linearGradient>
<linearGradient id="paint69_linear_5001_237" x1="92.0766" y1="117.017" x2="86.0303" y2="114.276" gradientUnits="userSpaceOnUse">
<stop stop-color="#CE8522"/>
<stop offset="1" stop-color="#002C53"/>
</linearGradient>
<linearGradient id="paint70_linear_5001_237" x1="140.522" y1="101.566" x2="152.422" y2="96.4656" gradientUnits="userSpaceOnUse">
<stop stop-color="#CE8522"/>
<stop offset="1" stop-color="#002C53"/>
</linearGradient>
<linearGradient id="paint71_linear_5001_237" x1="141.448" y1="106.504" x2="151.618" y2="102.327" gradientUnits="userSpaceOnUse">
<stop stop-color="#CE8522"/>
<stop offset="1" stop-color="#002C53"/>
</linearGradient>
<linearGradient id="paint72_linear_5001_237" x1="142.421" y1="111.488" x2="150.843" y2="108.227" gradientUnits="userSpaceOnUse">
<stop stop-color="#CE8522"/>
<stop offset="1" stop-color="#002C53"/>
</linearGradient>
<linearGradient id="paint73_linear_5001_237" x1="143.441" y1="116.472" x2="150.049" y2="114.143" gradientUnits="userSpaceOnUse">
<stop stop-color="#CE8522"/>
<stop offset="1" stop-color="#002C53"/>
</linearGradient>
<linearGradient id="paint74_linear_5001_237" x1="143.794" y1="68.7168" x2="123.067" y2="86.8531" gradientUnits="userSpaceOnUse">
<stop stop-color="#002C53"/>
<stop offset="1" stop-color="#CE8522"/>
</linearGradient>
<linearGradient id="paint75_linear_5001_237" x1="143.794" y1="68.7168" x2="123.067" y2="86.8531" gradientUnits="userSpaceOnUse">
<stop stop-color="#002C53"/>
<stop offset="1" stop-color="#CE8522"/>
</linearGradient>
<linearGradient id="paint76_linear_5001_237" x1="143.794" y1="68.7168" x2="123.067" y2="86.8531" gradientUnits="userSpaceOnUse">
<stop stop-color="#002C53"/>
<stop offset="1" stop-color="#CE8522"/>
</linearGradient>
<linearGradient id="paint77_linear_5001_237" x1="143.794" y1="68.7168" x2="123.067" y2="86.8531" gradientUnits="userSpaceOnUse">
<stop stop-color="#002C53"/>
<stop offset="1" stop-color="#CE8522"/>
</linearGradient>
<linearGradient id="paint78_linear_5001_237" x1="143.794" y1="68.7168" x2="123.067" y2="86.8531" gradientUnits="userSpaceOnUse">
<stop stop-color="#002C53"/>
<stop offset="1" stop-color="#CE8522"/>
</linearGradient>
<linearGradient id="paint79_linear_5001_237" x1="143.794" y1="68.7168" x2="123.067" y2="86.8531" gradientUnits="userSpaceOnUse">
<stop stop-color="#002C53"/>
<stop offset="1" stop-color="#CE8522"/>
</linearGradient>
<linearGradient id="paint80_linear_5001_237" x1="19.9342" y1="116.073" x2="19.9342" y2="124.623" gradientUnits="userSpaceOnUse">
<stop stop-color="#F0C456"/>
<stop offset="1" stop-color="#CE8522"/>
</linearGradient>
<linearGradient id="paint81_linear_5001_237" x1="51.5431" y1="184.214" x2="51.5431" y2="192.764" gradientUnits="userSpaceOnUse">
<stop stop-color="#F0C456"/>
<stop offset="1" stop-color="#CE8522"/>
</linearGradient>
<linearGradient id="paint82_linear_5001_237" x1="186.753" y1="180.659" x2="186.753" y2="189.209" gradientUnits="userSpaceOnUse">
<stop stop-color="#F0C456"/>
<stop offset="1" stop-color="#CE8522"/>
</linearGradient>
<linearGradient id="paint83_linear_5001_237" x1="215.289" y1="116.073" x2="215.289" y2="124.623" gradientUnits="userSpaceOnUse">
<stop stop-color="#F0C456"/>
<stop offset="1" stop-color="#CE8522"/>
</linearGradient>
</defs>
</svg>
